/* XPM */
static char *result[] = {
/* columns rows colors chars-per-pixel */
"64 64 16 1 ",
"  c black",
". c #062600",
"X c #0D3502",
"o c #14430A",
"O c #1C5211",
"+ c #236014",
"@ c #266E1C",
"# c #2E7923",
"$ c #584B44",
"% c #6D6666",
"& c #35872A",
"* c #3C9631",
"= c #35A948",
"- c #8B8484",
"; c #BAB0B0",
": c #9EDF8A",
/* pixels */
"Xo+#OO+ooOO+XO#*@+OOOOoOOOO#XX;;;;;;X#O+@O&@&OoXO+*##o&O#+o*#OOO",
"OOXX@OO++@XOX@++o*o+O@##oOOXXO;;;;;;XXX+*O@&&#@@.oo++@*oo#o+OX+O",
"#@@+OOOO&o@@#OXX++O*----;;$$$$------;;$$$$+@oooo*&OOo++++#+o@XoX",
"Xo&+@OOO@++OXX+OO+O&----;;$$$$------;;$$$$*OO@+#*oo&++oo*+++OOoX",
"#O+oOOXXXOo+OX;;$$------;;$$$$------;;$$----;;$$o@*o+o#++o#o@OOX",
"Oo@OO@O#+X@*#@;;$$------;;$$$$------;;$$----;;$$#&#o@+*oO@++OOO@",
"O@@OO@oOXX$$----;;$$%%----;;$$------$$$$----;;$$$$--Oo+@XOo@OOO@",
"o@OOOO@#X+$$----;;$$%%----;;$$------$$$$----;;$$$$--X@o@XO@OO@+O",
"+oo+@OX@$$$$%%----$$$$%%--;;$$%%%%%%$$----;;$$$$----;;@OOOOOO+o+",
"++++@XO+$$$$%%----$$$$%%--;;$$%%%%%%$$----;;$$$$----;;oo+@OOOO##",
"++++@.--;;$$$$%%--;;$$$$%%          %%--;;$$--------;;$$oO@OO++o",
"##oOO+--;;$$$$%%--;;$$$$%%          %%--;;$$--------;;$$oo+@O++o",
"*+oO$$------;;$$----                      $$%%--;;;;$$--;;o+OO+o",
"o#+&$$------;;$$----                      $$%%--;;;;$$--;;++oO&+",
"#oo#$$%%%%--;;                                ;;$$$$------;;++o#",
"++o+$$%%%%--;;                                ;;$$$$------;;@++o",
"++$$$$$$$$%%$$          ==============            %%------$$O+oO",
"O+$$$$$$$$%%$$          ==============            %%------$$###O",
"oo$$$$--;;$$        ====::::::::::::::====        %%----$$$$o+++",
"+@$$$$--;;$$        ====::::::::::::::====        %%----$$$$O+++",
"OO$$%%----;;    ====::::==============::::====      %%$$$$--;;++",
"Oo$$%%----;;    ====::::==============::::====      %%$$$$--;;oo",
"++$$%%%%----  ====::====              ====::====    $$------;;+&",
"@#$$%%%%----  ====::====              ====::====    $$------;;o+",
"----$$$$$$$$==::::==                      ==::::==  %%------$$++",
"----$$$$$$$$==::::==                      ==::::==  %%------$$o&",
"%%----$$$$====::==                          ==::====  %%$$$$;;;;",
"%%----$$$$====::==                          ==::====  %%$$$$;;;;",
"$$%%--;;;;==::==                              ==::==  $$------;;",
"$$%%--;;;;==::==                              ==::==  $$------;;",
"$$$$%%--;;::==                                  ==::==%%------$$",
"$$$$%%--;;::==                                  ==::==%%------$$",
"$$$$$$$$$$::==                                  ==::==%%----$$$$",
"$$$$$$$$$$::==                                  ==::==%%----$$$$",
"%%----;;$$==                                      ==::$$$$$$;;;;",
"%%----;;$$==                                      ==::$$$$$$;;;;",
"$$------;;==                                      ==::%%------;;",
"$$------;;==                                      ==::%%------;;",
"$$%%----;;==                                      ==::%%------;;",
"$$%%----;;==                                      ==::%%------;;",
"$$%%$$%%$$==                                      ==::$$%%%%$$$$",
"$$%%$$%%$$==                                      ==::$$%%%%$$$$",
"$$$$$$$$$$==                                      ==::--$$$$;;;;",
"$$$$$$$$$$==                                      ==::--$$$$;;;;",
"----;;;;$$==                                      ==::--------;;",
"----;;;;$$==                                      ==::--------;;",
"%%------;;==                                      ==::%%%%--$$$$",
"%%------;;==                                      ==::%%%%--$$$$",
"%%%%--$$$$::==                                  ==::==$$$$$$$$;;",
"%%%%--$$$$::==                                  ==::==$$$$$$$$;;",
"$$%%$$$$$$::==                                  ==::==----;;$$$$",
"$$%%$$$$$$::==                                  ==::==----;;$$$$",
"$$$$$$;;;;==::==                              ==::==  ------;;$$",
"$$$$$$;;;;==::==                              ==::==  ------;;$$",
"$$------;;====::==                          ==::====  %%------;;",
"$$------;;====::==                          ==::====  %%------;;",
"$$--------  ==::::==                      ==::::==    $$%%--$$$$",
"$$--------  ==::::==                      ==::::==    $$%%--$$$$",
"$$$$$$$$$$    ====::====              ====::====      $$$$$$;;;;",
"$$$$$$$$$$    ====::====              ====::====      $$$$$$;;;;",
"------;;$$      ====::::==============::::====        %%------;;",
"------;;$$      ====::::==============::::====        %%------;;",
"%%%%----$$          ====::::::::::::::====            $$%%----$$",
"%%%%----$$          ====::::::::::::::====            $$%%----$$"
};
