/* XPM */
static char *result[] = {
/* columns rows colors chars-per-pixel */
"64 64 12 1 ",
"  c #062600",
". c #0D3502",
"X c #181425",
"o c #14430A",
"O c #1C5211",
"+ c #236014",
"@ c #266E1C",
"# c #2E7923",
"$ c #35872A",
"% c #3C9631",
"& c #C28569",
"* c #EAD4AA",
/* pixels */
".o+#OO+ooOO+.O#%@+XXXXXXXXXXXXXXXXXXXXXXXXXXXXo.O+%##o$O#+o%#OOO",
"OO..@OO++@.O.@++o%XXXXXXXXXXXXXXXXXXXXXXXXXXXX@@ oo++@%oo#o+O.+O",
"#@@+OOOO$o@@#O..++XXXXXXXXXXXXXXXXXXXXXXXXXXXXoo%$OOo++++#+o@.o.",
".o$+@OOO@++O..+OO+XXXXXXXXXXXXXXXXXXXXXXXXXXXX+#%oo$++oo%+++OOo.",
"#O+oOO...Oo+O.XXXX****************************XXXX%o+o#++o#o@OO.",
"Oo@OO@O#+.@%#@XXXX****************************XXXX#o@+%oO@++OOO@",
"O@@OO@oO...#@oXXXX****************************XXXXoOOo+@.Oo@OOO@",
"o@OOOO@#.+OO##XXXX****************************XXXX%O.@o@.O@OO@+O",
"+oo+@O.@ @XXXX&&&&****************************&&&&XXXX@OOOOOO+o+",
"++++@.O+++XXXX&&&&****************************&&&&XXXXoo+@OOOO##",
"++++@ $++oXXXX&&&&****************************&&&&XXXX+%oO@OO++o",
"##oOO+#%+@XXXX&&&&****************************&&&&XXXX$$oo+@O++o",
"%+oOOo#oo.XXXX************************************XXXXo%%+o+OO+o",
"o#+$oo+#%oXXXX************************************XXXXoo++++oO$+",
"#oo##o+@@$XXXX************************************XXXXo++o+%++o#",
"++o++#o+@#XXXX************************************XXXX++o+#+@++o",
"++o+##o+@$XXXX********XXXXXXXX&&&&****XXXXXXXX&&&&XXXX#+O@o%O+oO",
"O++oo#@$$OXXXX********XXXXXXXX&&&&****XXXXXXXX&&&&XXXX#ooOo+###O",
"oo@O++@$OoXXXX********XXXXXXXX&&&&****XXXXXXXX&&&&XXXX@o##o+o+++",
"+@OO##++++XXXX********XXXXXXXX&&&&****XXXXXXXX&&&&XXXXO+##o@O+++",
"OO@Oo#oo+%XXXX********XXXXXXXX&&&&****XXXXXXXX&&&&XXXXOoo+$.@o++",
"Oo+O@O@OooXXXX********XXXXXXXX&&&&****XXXXXXXX&&&&XXXX@@+%ooO+oo",
"++$OOOO@o%XXXX********XXXXXXXX&&&&****XXXXXXXX&&&&XXXXO..##++++$",
"@#o+O@O@+@XXXX********XXXXXXXX&&&&****XXXXXXXX&&&&XXXX#.Oo##++o+",
"O@O$.OOOo@XXXX********&&&&&&&&&&&&****&&&&&&&&&&&&XXXXOO@@+o++++",
"O$$++.O@+%XXXX********&&&&&&&&&&&&****&&&&&&&&&&&&XXXX+OOO #$Oo$",
"$$o++@OOo+XXXX********&&&&&&&&&&&&****&&&&&&&&&&&&XXXXo@@.@#+$$O",
"#@+oo+o@OOXXXX********&&&&&&&&&&&&****&&&&&&&&&&&&XXXXooOO+oo#$#",
"$@$++o$+O@XXXX&&&&****************************&&&&XXXX+@@O@@.oO#",
"$@O$+o++OOXXXX&&&&****************************&&&&XXXXoO.@@..O%O",
"@$@$@%+o@.XXXX&&&&****************************&&&&XXXX+OOOO#.+#O",
"+o@OO@@+OOXXXX&&&&****************************&&&&XXXX++OO@.OO++",
"O++#+OXXXXXXXXXXXXXXXX****XXXX****XXXX****XXXXXXXXXXXXXXXXo@.+.O",
".@++#@XXXXXXXXXXXXXXXX****XXXX****XXXX****XXXXXXXXXXXXXXXX+@.o.#",
"OOOo+@XXXXXXXXXXXXXXXX****XXXX****XXXX****XXXXXXXXXXXXXXXXO@OOO#",
"O.O@o+XXXXXXXXXXXXXXXX****XXXX****XXXX****XXXXXXXXXXXXXXXXO@oOOO",
"@OXXXX********XXXXXXXXXXXXXXXXXXXXXXXXXXXXXXXX&&&&&&&&&&&&XXXX#O",
"O$XXXX********XXXXXXXXXXXXXXXXXXXXXXXXXXXXXXXX&&&&&&&&&&&&XXXX..",
"O+XXXX********XXXXXXXXXXXXXXXXXXXXXXXXXXXXXXXX&&&&&&&&&&&&XXXX#.",
"@+XXXX********XXXXXXXXXXXXXXXXXXXXXXXXXXXXXXXX&&&&&&&&&&&&XXXX@O",
"OoXXXX********XXXX****************************XXXX&&&&&&&&XXXXoO",
"@@XXXX********XXXX****************************XXXX&&&&&&&&XXXX@O",
"OOXXXX********XXXX****************************XXXX&&&&&&&&XXXXoO",
"+OXXXX********XXXX****************************XXXX&&&&&&&&XXXXo@",
"+@OOOOXXXXXXXXXXXXXXXXXXXX&&&&&&&&&&&&XXXXXXXXXXXXXXXXXXXX+$$+o+",
"O@O@O.XXXXXXXXXXXXXXXXXXXX&&&&&&&&&&&&XXXXXXXXXXXXXXXXXXXX+@o#++",
"O.@OOOXXXXXXXXXXXXXXXXXXXX&&&&&&&&&&&&XXXXXXXXXXXXXXXXXXXXo+#o#o",
"o@OO@OXXXXXXXXXXXXXXXXXXXX&&&&&&&&&&&&XXXXXXXXXXXXXXXXXXXX@o+#+%",
"+.O@O@.+oo.@@OXXXX****************************XXXXOOOO.O@O.@+o%$",
"++.OO@OO.+o.@oXXXX****************************XXXX@O.+.OO@@OOOo@",
"#+@OOOOOO+o.O+XXXX****************************XXXXOOo.#OO++OOO+#",
"o#O..#O+ooo+OoXXXX****************************XXXX@.O.O#O@O@OOOO",
"O@@.o..ooooOOoXXXXXXXXXXXXXXXXXXXXXXXXXXXXXXXXXXXX++OO.O.O@.O..O",
".O#O+o+o+oOOo%XXXXXXXXXXXXXXXXXXXXXXXXXXXXXXXXXXXXo+%@.+OO.Oo++o",
"+.O.#.oooOOO#$XXXXXXXXXXXXXXXXXXXXXXXXXXXXXXXXXXXXo#+$..O@O+oooo",
"o..@#OoooOOO+$XXXXXXXXXXXXXXXXXXXXXXXXXXXXXXXXXXXX+@O@@OOOOO.ooo",
"o+#OO.+.+OO.o#o@OOXXXX&&&&&&&&XXXX&&&&&&&&XXXX$+O#+...o%+OO@O#.o",
".oooooOOO..@+@.Oo+XXXX&&&&&&&&XXXX&&&&&&&&XXXXo##%o..Oo#%o@+$oOO",
"O+ oo.O@OOO@@..@##XXXX&&&&&&&&XXXX&&&&&&&&XXXX+ooo++@O@++ooo++#@",
".oo o#@@O@@O.OO++oXXXX&&&&&&&&XXXX&&&&&&&&XXXXo+++o%+O.O.$++#$$o",
"..+o.OOOOO@OOO+o+OXXXX********XXXX********XXXX$+++++@oO.@+$@o+%o",
"@#.O#O.+$oOO+#o+o$XXXX********XXXX********XXXXO@%o+@$@#oO++%+oo+",
"OOO.OO++#+OO++%o%+XXXX********XXXX********XXXX$$++++$$$#o+oo%o+@",
"..O..@$++O.OO+o$+oXXXX********XXXX********XXXX$+o%$ooO$$o$+#o%+O"
};
