/* XPM */
static char *result[] = {
/* columns rows colors chars-per-pixel */
"64 64 12 1 ",
"  c #062600",
". c #0D3502",
"X c #181425",
"o c #14430A",
"O c #1C5211",
"+ c #236014",
"@ c #266E1C",
"# c #2E7923",
"$ c #35872A",
"% c #3C9631",
"& c #C28569",
"* c #EAD4AA",
/* pixels */
".o+#OO+ooOO+.O#%@+OOOOoOOOO#..OOOO.+.#O+@O$@$Oo.O+%##o$O#+o%#OOO",
"OO..@OO++@.O.@++o%o+O@##oOO..O@O@O#+...+%O@$$#@@ oo++@%oo#o+O.+O",
"#@@+OOOO$o@@#O..++O%ooo%+O.@@#oo+OO.oOO+#O+@oooo%$OOo++++#+o@.o.",
".o$+@OOO@++O..+OO+O$@+$ooOO.%o$%oOO.OO@o@O%OO@+#%oo$++oo%+++OOo.",
"#O+oOO...Oo+O..OO@XXXXXXXXXXXXXXXXXXXXXXXXXXXX+oo@%o+o#++o#o@OO.",
"Oo@OO@O#+.@%#@OOOOXXXXXXXXXXXXXXXXXXXXXXXXXXXXO.#$#o@+%oO@++OOO@",
"O@@OO@oO...#@o@.OOXXXXXXXXXXXXXXXXXXXXXXXXXXXXO.+$oOOo+@.Oo@OOO@",
"o@OOOO@#.+OO##O.OOXXXXXXXXXXXXXXXXXXXXXXXXXXXX@@+@%O.@o@.O@OO@+O",
"+oo+@O.@ @OOo+XXXX****************************XXXX##oO@OOOOOO+o+",
"++++@.O++++++oXXXX****************************XXXXo+$+oo+@OOOO##",
"++++@ $++o+#ooXXXX****************************XXXX%+Oo+%oO@OO++o",
"##oOO+#%+@O+++XXXX****************************XXXX%+.o$$oo+@O++o",
"%+oOOo#oo.XXXX&&&&****************************&&&&XXXXo%%+o+OO+o",
"o#+$oo+#%oXXXX&&&&****************************&&&&XXXXoo++++oO$+",
"#oo##o+@@$XXXX&&&&****************************&&&&XXXXo++o+%++o#",
"++o++#o+@#XXXX&&&&****************************&&&&XXXX++o+#+@++o",
"++o+##o+@$XXXX********&&&&&&&&&&&&****&&&&&&&&&&&&XXXX#+O@o%O+oO",
"O++oo#@$$OXXXX********&&&&&&&&&&&&****&&&&&&&&&&&&XXXX#ooOo+###O",
"oo@O++@$OoXXXX********&&&&&&&&&&&&****&&&&&&&&&&&&XXXX@o##o+o+++",
"+@OO##++++XXXX********&&&&&&&&&&&&****&&&&&&&&&&&&XXXXO+##o@O+++",
"OO@Oo#oo+%XXXX********XXXXXXXX&&&&****XXXXXXXX&&&&XXXXOoo+$.@o++",
"Oo+O@O@OooXXXX********XXXXXXXX&&&&****XXXXXXXX&&&&XXXX@@+%ooO+oo",
"++$OOOO@o%XXXX********XXXXXXXX&&&&****XXXXXXXX&&&&XXXXO..##++++$",
"@#o+O@O@+@XXXX********XXXXXXXX&&&&****XXXXXXXX&&&&XXXX#.Oo##++o+",
"O@O$.OOOo@XXXX********XXXXXXXX&&&&****XXXXXXXX&&&&XXXXOO@@+o++++",
"O$$++.O@+%XXXX********XXXXXXXX&&&&****XXXXXXXX&&&&XXXX+OOO #$Oo$",
"$$o++@OOo+XXXX********XXXXXXXX&&&&****XXXXXXXX&&&&XXXXo@@.@#+$$O",
"#@+oo+o@OOXXXX********XXXXXXXX&&&&****XXXXXXXX&&&&XXXXooOO+oo#$#",
"$@$++o$+O@XXXX********&&&&&&&&&&&&****&&&&&&&&&&&&XXXX+@@O@@.oO#",
"$@O$+o++OOXXXX********&&&&&&&&&&&&****&&&&&&&&&&&&XXXXoO.@@..O%O",
"@$@$@%+o@.XXXX********&&&&&&&&&&&&****&&&&&&&&&&&&XXXX+OOOO#.+#O",
"+o@OO@@+OOXXXX********&&&&&&&&&&&&****&&&&&&&&&&&&XXXX++OO@.OO++",
"O++#+O$#O.XXXX&&&&****************************&&&&XXXX++$+o@.+.O",
".@++#@O+o@XXXX&&&&****************************&&&&XXXXo+o++@.o.#",
"OOOo+@++$OXXXX&&&&****************************&&&&XXXXo+OOO@OOO#",
"O.O@o+%O+oXXXX&&&&****************************&&&&XXXX#+@.O@oOOO",
"@O@o+oO$O+o%oOXXXXXXXX****XXXX****XXXX****XXXXXXXX+%O@O+.OO@@@#O",
"O$+o@@+%#%@@+OXXXXXXXX****XXXX****XXXX****XXXXXXXXo+$@@+o@OOOO..",
"O++oOO..o+%@#+XXXXXXXX****XXXX****XXXX****XXXXXXXX+o$$@+++o+OO#.",
"@++@O.o.OOo+O+XXXXXXXX****XXXX****XXXX****XXXXXXXX++o+++@$$+o+@O",
"Ooo+O.OOOOo+$#&&&&XXXXXXXXXXXXXXXXXXXXXXXXXXXX&&&&+++Oo+O@$@++oO",
"@@O@++@O@O+$@+&&&&XXXXXXXXXXXXXXXXXXXXXXXXXXXX&&&&+o+@.@@$$Oo+@O",
"OOOO@++oOO$+++&&&&XXXXXXXXXXXXXXXXXXXXXXXXXXXX&&&&+O@OOoo$@@++oO",
"+OO..O@@OOOoo+&&&&XXXXXXXXXXXXXXXXXXXXXXXXXXXX&&&&OOOOO+%+@@O+o@",
"+@OOOOXXXXXXXXXXXX****************************XXXXXXXXXXXX+$$+o+",
"O@O@O.XXXXXXXXXXXX****************************XXXXXXXXXXXX+@o#++",
"O.@OOOXXXXXXXXXXXX****************************XXXXXXXXXXXXo+#o#o",
"o@OO@OXXXXXXXXXXXX****************************XXXXXXXXXXXX@o+#+%",
"+.XXXX********XXXXXXXXXXXX&&&&&&&&&&&&XXXXXXXXXXXX&&&&&&&&XXXX%$",
"++XXXX********XXXXXXXXXXXX&&&&&&&&&&&&XXXXXXXXXXXX&&&&&&&&XXXXo@",
"#+XXXX********XXXXXXXXXXXX&&&&&&&&&&&&XXXXXXXXXXXX&&&&&&&&XXXX+#",
"o#XXXX********XXXXXXXXXXXX&&&&&&&&&&&&XXXXXXXXXXXX&&&&&&&&XXXXOO",
"O@XXXX********XXXX****************************XXXX&&&&&&&&XXXX.O",
".OXXXX********XXXX****************************XXXX&&&&&&&&XXXX+o",
"+.XXXX********XXXX****************************XXXX&&&&&&&&XXXXoo",
"o.XXXX********XXXX****************************XXXX&&&&&&&&XXXXoo",
"o+#OO.XXXXXXXXXXXXXXXXXXXXXXXXXXXXXXXXXXXXXXXXXXXXXXXXXXXXO@O#.o",
".oooooXXXXXXXXXXXXXXXXXXXXXXXXXXXXXXXXXXXXXXXXXXXXXXXXXXXX@+$oOO",
"O+ oo.XXXXXXXXXXXXXXXXXXXXXXXXXXXXXXXXXXXXXXXXXXXXXXXXXXXXoo++#@",
".oo o#XXXXXXXXXXXXXXXXXXXXXXXXXXXXXXXXXXXXXXXXXXXXXXXXXXXX++#$$o",
"..+o.OOOOO@OOO+o+OXXXX&&&&&&&&XXXX&&&&&&&&XXXX$+++++@oO.@+$@o+%o",
"@#.O#O.+$oOO+#o+o$XXXX&&&&&&&&XXXX&&&&&&&&XXXXO@%o+@$@#oO++%+oo+",
"OOO.OO++#+OO++%o%+XXXX&&&&&&&&XXXX&&&&&&&&XXXX$$++++$$$#o+oo%o+@",
"..O..@$++O.OO+o$+oXXXX&&&&&&&&XXXX&&&&&&&&XXXX$+o%$ooO$$o$+#o%+O"
};
