/* XPM */
static char *result[] = {
/* columns rows colors chars-per-pixel */
"64 64 12 1 ",
"  c #062600",
". c #0D3502",
"X c #181425",
"o c #14430A",
"O c #1C5211",
"+ c #236014",
"@ c #266E1C",
"# c #2E7923",
"$ c #35872A",
"% c #3C9631",
"& c #C28569",
"* c #EAD4AA",
/* pixels */
".o+#OO+ooOO+.O#%@+XXXXXXXXXXXXXXXXXXXXXXXXXXXXo.O+%##o$O#+o%#OOO",
"OO..@OO++@.O.@++o%XXXXXXXXXXXXXXXXXXXXXXXXXXXX@@ oo++@%oo#o+O.+O",
"#@@+OOOO$o@@#O..++XXXXXXXXXXXXXXXXXXXXXXXXXXXXoo%$OOo++++#+o@.o.",
".o$+@OOO@++O..+OO+XXXXXXXXXXXXXXXXXXXXXXXXXXXX+#%oo$++oo%+++OOo.",
"#O+oOO...Oo+O.XXXX****************************XXXX%o+o#++o#o@OO.",
"Oo@OO@O#+.@%#@XXXX****************************XXXX#o@+%oO@++OOO@",
"O@@OO@oO...#@oXXXX****************************XXXXoOOo+@.Oo@OOO@",
"o@OOOO@#.+OO##XXXX****************************XXXX%O.@o@.O@OO@+O",
"+oo+@O.@ @XXXX&&&&****************************&&&&XXXX@OOOOOO+o+",
"++++@.O+++XXXX&&&&****************************&&&&XXXXoo+@OOOO##",
"++++@ $++oXXXX&&&&****************************&&&&XXXX+%oO@OO++o",
"##oOO+#%+@XXXX&&&&****************************&&&&XXXX$$oo+@O++o",
"%+oOOo#oo.XXXX************************************XXXXo%%+o+OO+o",
"o#+$oo+#%oXXXX************************************XXXXoo++++oO$+",
"#oo##o+@@$XXXX************************************XXXXo++o+%++o#",
"++o++#o+@#XXXX************************************XXXX++o+#+@++o",
"++o+##o+@$XXXX********XXXXXXXX&&&&****XXXXXXXX&&&&XXXX#+O@o%O+oO",
"O++oo#@$$OXXXX********XXXXXXXX&&&&****XXXXXXXX&&&&XXXX#ooOo+###O",
"oo@O++@$OoXXXX********XXXXXXXX&&&&****XXXXXXXX&&&&XXXX@o##o+o+++",
"+@OO##++++XXXX********XXXXXXXX&&&&****XXXXXXXX&&&&XXXXO+##o@O+++",
"OO@Oo#oo+%XXXX********XXXXXXXX&&&&****XXXXXXXX&&&&XXXXOoo+$.@o++",
"Oo+O@O@OooXXXX********XXXXXXXX&&&&****XXXXXXXX&&&&XXXX@@+%ooO+oo",
"++$OOOO@o%XXXX********XXXXXXXX&&&&****XXXXXXXX&&&&XXXXO..##++++$",
"@#o+O@O@+@XXXX********XXXXXXXX&&&&****XXXXXXXX&&&&XXXX#.Oo##++o+",
"O@O$.OOOo@XXXX********&&&&&&&&&&&&****&&&&&&&&&&&&XXXXOO@@+o++++",
"O$$++.O@+%XXXX********&&&&&&&&&&&&****&&&&&&&&&&&&XXXX+OOO #$Oo$",
"$$o++@OOo+XXXX********&&&&&&&&&&&&****&&&&&&&&&&&&XXXXo@@.@#+$$O",
"#@+oo+o@OOXXXX********&&&&&&&&&&&&****&&&&&&&&&&&&XXXXooOO+oo#$#",
"$@$++o$+O@XXXX&&&&****************************&&&&XXXX+@@O@@.oO#",
"$@O$+o++OOXXXX&&&&****************************&&&&XXXXoO.@@..O%O",
"@$@$@%+o@.XXXX&&&&****************************&&&&XXXX+OOOO#.+#O",
"+o@OO@@+OOXXXX&&&&****************************&&&&XXXX++OO@.OO++",
"O++#+O$#O.@@OOXXXXXXXX****XXXX****XXXX****XXXXXXXXoo%o++$+o@.+.O",
".@++#@O+o@O@@.XXXXXXXX****XXXX****XXXX****XXXXXXXX+$@%o+o++@.o.#",
"OOOo+@++$OOOO@XXXXXXXX****XXXX****XXXX****XXXXXXXX@$O@o+OOO@OOO#",
"O.O@o+%O+o+OOOXXXXXXXX****XXXX****XXXX****XXXXXXXXOO@##+@.O@oOOO",
"@O@o+oO$O+o%oOOOO@XXXXXXXXXXXXXXXXXXXXXXXXXXXX+O+++%O@O+.OO@@@#O",
"O$+o@@+%#%@@+OOO.OXXXXXXXXXXXXXXXXXXXXXXXXXXXX@o++o+$@@+o@OOOO..",
"O++oOO..o+%@#+.OO.XXXXXXXXXXXXXXXXXXXXXXXXXXXXoo+++o$$@+++o+OO#.",
"@++@O.o.OOo+O+OOO+XXXXXXXXXXXXXXXXXXXXXXXXXXXX++o+++o+++@$$+o+@O",
"Ooo+O.XXXXXXXX&&&&&&&&&&&&&&&&&&&&&&&&&&&&&&&&&&&&XXXXXXXX$@++oO",
"@@O@++XXXXXXXX&&&&&&&&&&&&&&&&&&&&&&&&&&&&&&&&&&&&XXXXXXXX$Oo+@O",
"OOOO@+XXXXXXXX&&&&&&&&&&&&&&&&&&&&&&&&&&&&&&&&&&&&XXXXXXXX@@++oO",
"+OO..OXXXXXXXX&&&&&&&&&&&&&&&&&&&&&&&&&&&&&&&&&&&&XXXXXXXX@@O+o@",
"+@XXXX********XXXX****************************XXXX&&&&&&&&XXXXo+",
"O@XXXX********XXXX****************************XXXX&&&&&&&&XXXX++",
"O.XXXX********XXXX****************************XXXX&&&&&&&&XXXX#o",
"o@XXXX********XXXX****************************XXXX&&&&&&&&XXXX+%",
"+.XXXX********XXXXXXXXXXXX&&&&&&&&&&&&XXXXXXXXXXXX&&&&&&&&XXXX%$",
"++XXXX********XXXXXXXXXXXX&&&&&&&&&&&&XXXXXXXXXXXX&&&&&&&&XXXXo@",
"#+XXXX********XXXXXXXXXXXX&&&&&&&&&&&&XXXXXXXXXXXX&&&&&&&&XXXX+#",
"o#XXXX********XXXXXXXXXXXX&&&&&&&&&&&&XXXXXXXXXXXX&&&&&&&&XXXXOO",
"O@@.o.XXXXXXXXXXXX****************************XXXXXXXXXXXX@.O..O",
".O#O+oXXXXXXXXXXXX****************************XXXXXXXXXXXX.Oo++o",
"+.O.#.XXXXXXXXXXXX****************************XXXXXXXXXXXXO+oooo",
"o..@#OXXXXXXXXXXXX****************************XXXXXXXXXXXXOO.ooo",
"o+#OO.+.+OO.o#XXXXXXXXXXXXXXXXXXXXXXXXXXXXXXXXXXXX+...o%+OO@O#.o",
".oooooOOO..@+@XXXXXXXXXXXXXXXXXXXXXXXXXXXXXXXXXXXXo..Oo#%o@+$oOO",
"O+ oo.O@OOO@@.XXXXXXXXXXXXXXXXXXXXXXXXXXXXXXXXXXXX++@O@++ooo++#@",
".oo o#@@O@@O.OXXXXXXXXXXXXXXXXXXXXXXXXXXXXXXXXXXXXo%+O.O.$++#$$o",
"..+o.OOOOO@OOO+o+OXXXX&&&&&&&&XXXX&&&&&&&&XXXX$+++++@oO.@+$@o+%o",
"@#.O#O.+$oOO+#o+o$XXXX&&&&&&&&XXXX&&&&&&&&XXXXO@%o+@$@#oO++%+oo+",
"OOO.OO++#+OO++%o%+XXXX&&&&&&&&XXXX&&&&&&&&XXXX$$++++$$$#o+oo%o+@",
"..O..@$++O.OO+o$+oXXXX&&&&&&&&XXXX&&&&&&&&XXXX$+o%$ooO$$o$+#o%+O"
};
