/* XPM */
static char *db8a1c3bee944d88862e09d454fe4381Xzx7xFCyoPt390NK[] = {
/* columns rows colors chars-per-pixel */
"64 64 219 2 ",
"   c #062600",
".  c #0D3502",
"X  c #140E37",
"o  c #17123A",
"O  c #19143A",
"+  c #1A153D",
"@  c #14430A",
"#  c #1E4819",
"$  c #1C5211",
"%  c #24521D",
"&  c #236014",
"*  c #2A611F",
"=  c #266E1C",
"-  c #355433",
";  c #2E7923",
":  c #376E31",
">  c #1C1641",
",  c #1E1940",
"<  c #231D47",
"1  c #262246",
"2  c #2B254E",
"3  c #28245C",
"4  c #323252",
"5  c #373157",
"6  c #3B3857",
"7  c #3D3A55",
"8  c #1F2675",
"9  c #272569",
"0  c #272975",
"q  c #242A79",
"w  c #302772",
"e  c #322977",
"r  c #342B7A",
"t  c #34347A",
"y  c #413E57",
"u  c #423E59",
"i  c #403979",
"p  c #3D5141",
"a  c #314F75",
"s  c #335077",
"d  c #355279",
"f  c #39557C",
"g  c #425A45",
"h  c #44415C",
"j  c #505D59",
"k  c #496A4C",
"l  c #4E6652",
"z  c #53655A",
"x  c #4D4867",
"c  c #504D6F",
"v  c #43587A",
"b  c #595679",
"n  c #5B6766",
"m  c #5E656A",
"M  c #5D7367",
"N  c #5D657C",
"B  c #616B6D",
"V  c #656B75",
"C  c #686B77",
"Z  c #64647A",
"A  c #666878",
"S  c #6B6C7B",
"D  c #716F7D",
"F  c #6D707C",
"G  c #35872A",
"H  c #3C9631",
"J  c #548259",
"K  c #262C85",
"L  c #292E83",
"P  c #292F88",
"I  c #2B3187",
"U  c #2B318A",
"Y  c #343386",
"T  c #2D3291",
"R  c #313794",
"E  c #393F9F",
"W  c #363BA6",
"Q  c #403EA3",
"!  c #3C5388",
"~  c #3A43B6",
"^  c #535C88",
"/  c #51559B",
"(  c #665C85",
")  c #6F5C85",
"_  c #705D87",
"`  c #715F89",
"'  c #615B94",
"]  c #446796",
"[  c #666386",
"{  c #6E6D81",
"}  c #706F81",
"|  c #727083",
" . c #777689",
".. c #6D6F97",
"X. c #766997",
"o. c #5052AF",
"O. c #695AA6",
"+. c #537DB5",
"@. c #6668A8",
"#. c #7576AE",
"$. c #6A69B6",
"%. c #7968B6",
"&. c #7C6BB9",
"*. c #3E46C7",
"=. c #4851D8",
"-. c #5A62DE",
";. c #6F73C9",
":. c #7272C4",
">. c #4A53E8",
",. c #505AE3",
"<. c #4D57F3",
"1. c #4E59F6",
"2. c #4F59F9",
"3. c #505AF4",
"4. c #505BFA",
"5. c #5C65F5",
"6. c #676EE7",
"7. c #636CF4",
"8. c #6D75F5",
"9. c #727AF6",
"0. c #7179F8",
"q. c #816B9C",
"w. c #817E97",
"e. c #8D70AA",
"r. c #827AAE",
"t. c #857DB5",
"y. c #877FB8",
"u. c #8A7FB9",
"i. c #977EB7",
"p. c #987FB8",
"a. c #A279AF",
"s. c #A27CB4",
"d. c #AB7EB7",
"f. c #AC7FB8",
"g. c #8878C4",
"h. c #8977CD",
"j. c #7A85B3",
"k. c #6D8DD3",
"l. c #7981F3",
"z. c #75A6F3",
"x. c #74A9F5",
"c. c #828399",
"v. c #8B89A6",
"b. c #8A8EAC",
"n. c #908CB8",
"m. c #B080BA",
"M. c #ACABB4",
"N. c #B3B2BA",
"B. c #878CCF",
"V. c #9589CA",
"C. c #9688D5",
"Z. c #A589C7",
"A. c #B78BCA",
"S. c #A29ACC",
"D. c #A7A8CB",
"F. c #B4B3CE",
"G. c #8D8CEE",
"H. c #9A88E3",
"J. c #8A9BEC",
"K. c #9091F4",
"L. c #9798F2",
"P. c #A997E9",
"I. c #A38CF4",
"U. c #A68FF9",
"Y. c #A592F2",
"T. c #AA98F2",
"R. c #8EA7ED",
"E. c #8CA6F2",
"W. c #8EA8F3",
"Q. c #99A2F4",
"!. c #9CB2F4",
"~. c #AEA4EF",
"^. c #A9A3F2",
"/. c #ABADF3",
"(. c #B3A7F3",
"). c #B4A9F5",
"_. c #B8ACF7",
"`. c #B5B8F0",
"'. c #CF96DA",
"]. c #CF9EE7",
"[. c #DBA3ED",
"{. c #C9A7F3",
"}. c #CBA9F4",
"|. c #DBA6F3",
" X c #CDB9F1",
".X c #E4A7F3",
"XX c #EFA7F1",
"oX c #E7A9F6",
"OX c #EAACF1",
"+X c #EBABF9",
"@X c #F1A6F2",
"#X c #F3A9F4",
"$X c #BEC0D8",
"%X c #B6C3EE",
"&X c #BCC4F3",
"*X c #BDCBFA",
"=X c #D4D4D8",
"-X c #C7CBED",
";X c #C9CDEF",
":X c #D7D5EA",
">X c #C7C9F3",
",X c #C6CAF4",
"<X c #C6C9FB",
"1X c #C8CBFE",
"2X c #D3CAF8",
"3X c #CDD3F3",
"4X c #D8D5F5",
"5X c #E9CFF1",
"6X c #E3D9F7",
"7X c #F4DCF4",
"8X c #DFE1F9",
"9X c #E7E8F7",
"0X c #E5E2FE",
"qX c #E9E6FE",
"wX c #EAEDFB",
"eX c #F5E7F6",
"rX c #EEF0F6",
"tX c #F6F3F9",
"yX c #FEFEFE",
/* pixels */
". @ & ; $ $ & @ @ $ $ & . $ ; H = & $ $ $ $ @ $ B V V C V V V V z $ . & . ; $ & = $ G = G $ @ . $ & H ; ; @ G $ ; & @ H ; $ $ $ ",
"$ $ . . = $ $ & & = . $ . = & & @ H @ & $ = ; : | M.M.M.M.M.M.M.S $ ; & . . . & H $ = G G ; = =   @ @ & & = H @ @ ; @ & $ . & $ ",
"; = = & $ $ $ $ G @ = = ; $ . . & & $ H @ @ m F  .yXyXyXyXyXyX@ S } k . @ $ $ & ; $ & = @ @ @ @ H G $ $ @ & & & & ; & @ = . @ . ",
". @ G & = $ $ $ = & & $ . . & $ $ & $ G = * S #.v.eXeXeXeXeXeXeX=X=XS . $ $ = @ = $ H $ $ = & ; H @ @ G & & @ @ H & & & $ $ @ . ",
"; $ & @ $ $ . . . $ @ & $ . . $ $ = @ G n S S y.n.7X7X7X7X7X7X7XyX$ A } n = @ & = G @ . $ $ & @ @ = H @ & @ ; & & @ ; @ = $ $ . ",
"$ @ = $ $ = $ ; & . = H ; = $ $ $ $ @ G } u u XXXX#X#X#X5X7X7X7X7X7XtXtX{ = & H G G G $ . = $ . ; G ; @ = & H @ $ = & & $ $ $ = ",
"$ = = $ $ = @ $ . . . ; = @ = . $ $ m | } 7 7 #X#X#X#X#X5X7X7X7X7X7XyXyXA S g ; ; @ @ & = = $ . & G @ $ $ @ & = . $ @ = $ $ $ = ",
"@ = $ $ $ $ = ; . & $ $ ; ; $ . $ $ | 7 7 _._.t.u.#X#X@X@X@X@X@X7X7X7X7X& rXB $ $ $ = @ & @ = = & = H $ . = @ = . $ = $ $ = & $ ",
"& @ @ & = $ . =   = $ $ @ & = . C { | 7 7 _.).t.u.#X#X#X#X#X#X#X7X7X7X7XyXrXC C - = = $ $ = & @ @ ; ; ; @ $ = $ $ $ $ $ $ & @ & ",
"& & & & = . $ & & & & & & @ = = S h 7 2X2X(.).).~.t.Z.#X#X#X#X@X@X@X7X7X7X7X$ =Xj - $ $ $ $ $ = $ @ @ & G & @ @ & = $ $ $ $ ; ; ",
"& & & & =   G & & @ & ; @ @ = $ C h u 2X2X(.).).~.y.Z.XX@X#X#X#X#X@X7X7X7X7XyX=X{ S % $ = = $ $ $ @ H & $ @ & H @ $ = $ $ & & @ ",
"; ; @ $ $ & ; H & = $ & & & $ $ S h u (.(.).).).(.}.V.u d.#X#X#X#X@X@X#X#X#X7X6X*Xb.p $ $ $ = = @ H H & . @ G G @ @ & = $ & & @ ",
"H & @ $ $ @ ; @ @ . $ @ G @ $ $ C h u (.).).(.`.`.}.Z.c a.'.XX#X#X#X#X#X#XXX6X4X*Xb.p ; $ . $ = & @ ; @ & G @ H H & @ & $ $ & @ ",
"@ ; & G @ @ & ; H @ @ & & @ & H S h u (.).).(.yXtX}.}.}.X.u '.#X#X#X#X#X@XoXW.!.*Xb.k . $ $ . $ n m B B V & @ @ & & & & @ $ G & ",
"; @ @ ; ; @ & = = G G @ @ & & $ S h u (.).).(.4X4X5X2X}.Z.e.A.A.@X#X#X#Xn.V.E.!.*Xb.k $ ; $ = : S N.N.n.v.g @ & & @ & H & & @ ; ",
"& & @ & & ; @ & = ; G = @ & & & S h u (.).).).(._.yXqX}.|.oXn.y.#X#X#X#Xd ! W.!.*Xb.k @ . = n S C ; tX1XD.S C & @ & ; & = & & @ ",
"& & @ & ; ; @ & = G = G & & & & S X.X.(.).).).).). X X}.|.oX].].) ) ....k.k.W.!.*Xb.J H @ $ S :X=X(._.1X&XF.c.l $ = @ H $ & @ $ ",
"$ & & @ @ ; = G G $ G = G @ & & S r.y.).).).).).(.}.}.}.|.oXoXoX7 u f d x.z.W.!.*Xb.k = m { C & yXI.Y.1X1X1Xv.S } $ @ & ; ; ; $ ",
"@ @ = $ & & = G $ @ & G G G @ & S r.y.(.).).).).(.}.}.}.6XyXOXoX[..Xs d x.z.E.!.*Xb.k & } -X-XR.R.I.Y.-X>X1X<X<X .; @ & @ & & & ",
"& = $ $ ; ; & & & & @ = G G = @ S t.y.(.).).).).(.}.}.}.6XyXOXoXoX+Xa d x.z.E.!.*Xb.{ S C ;X;XE.W.I.Y.-X>X1X<X1X .S } = $ & & & ",
"$ $ = $ @ ; @ @ & H & $ $ $ G G S h 7 (.).).).).(.}.}.}.|..XtXyX.XoX+.+.x.z.W.!.*Xb.{ %X*XE.E.W.W.I.T.yX9X-X,X<X1X1XS . = @ & & ",
"$ @ & $ = $ = $ @ @ = G G . G $ S h 7 (.).).).).(.}.}.}.|.oXtXyX.XoX+.+.x.z.W.!.*Xb.S %X*XE.W.W.W.I.T.. 9X;X,X<X1X1XS @ $ & @ @ ",
"& & G $ $ $ $ = @ H G = $ = = G S r.y.(.).).).).(.}.}.}.|.oXtXyX.XoX+.+.x.z.W.!.*X!.W.E.E.W.W.W.W.I.T.= 9X;X;X;X<X1XS & & & & G ",
"= ; @ & $ = $ = & = = G G H @ & C r.t.(.).).).).(.}.}.}.|.oXtXyX.XoX+.+.x.z.W.!.*X!.E.E.W.W.W.W.W.I.T.& 9X;X;X;X<X1XS ; & & @ & ",
"$ = $ G . $ $ $ @ = $ ; = @ & & C h y (.).).).).(.}.}.}.|.oXoXoXoX+Xs d x.z.W.!.*XB.#.R.W.W.W.W.W.I.T.; 9X;X;X;X<X1XS @ & & & & ",
"$ G G & & . $ = & H G G G $ = ; C c x (.).).).).(.}.}.}.|.oXoXoXoX+X! ! x.z.W.!.*XB.#.R.W.W.E.Q.Q.I.T.tX9X>X-X;X<X1XS ; G $ @ G ",
"G G @ & & = $ $ @ & = @ @ G G = S r.y.).).).).).(.}.}.}.|.oXoXoXoXoX+.+.x.z.W.!.*Xj.^ J.W.W.W.I.I.I.Y.;X,X1X>X;X<X1XS ; & G G $ ",
"; = & @ @ & @ = $ $ @ ; ; @ G G S [ ( (.).).).).(.}.}.}.|.oXoXoXoXoX+.+.x.z.W.!.3Xj.^ J.W.L.L.I.I.h.h...n.8X3X,X<X1XS @ @ ; G ; ",
"G = G & & @ G & $ = $ & & H @ G S h u (.).).).).(.}.}.}.|.oXoXoXoXoX+.+.x.x.W.`.wXb.^ J.W.I.I.I.I.%.O.+ A yX4X1X<X1XS = . @ $ ; ",
"G = $ G & @ & & $ $ $ $ @ & @ & S h h (.).).).).(.}.}.}.|.oXoXoXoXoX+.+.x.z.K.^.,Xj.^ G.L.g.g.g.g.3 3 9 i ' F.rX<X1XS . . $ H $ ",
"= G = G = H & @ = . $ $ $ $ $ & S h y (.).).).).(.}.}.}.|.oXoXoXoXoX+.+.x.z.K.Q.*Xj.^ H.I.%.&.&.&.O > r r r F.yX1X1XS ; . & ; $ ",
"& @ = $ $ = = & $ $ $ . $ $ . = S h u y.y.).).).(.}.}.}.|.oXoXoXoX+Xs d x.z.K.Q.*XV.%.&.&.&.&.+ > e e r W <.Q t `.1XS . $ $ & & ",
"$ & & B S S S S S S S S S S S S S h u y.y.).).(.(.}.}.}.|.oXoXoXoX+Xs d x.z.K.Q.*XV.&.&.&.&.t.X o r r e W 1.W e `.1XS = . & . $ ",
". = & | :XqXqXqX0X0XqXqXqXqXqXqXqXb u y.y.y.t.).(.}.}.}.|.oXoXoXoX+Xs d x.z.K./.wXS.&.&.&.o X r r r Y 1.1.1.1.2.K 8 } = . @ . ; ",
"$ n S S :X0X0X0X0X0X0X0X0X0X0X0X0Xc 7 u.u.y.y.).).}.}.}.|.oXoXoXoX+Xa s x.z.K./.wXS.&.&.&.o o r r e Y 1.1.1.1.2.P q } = $ $ $ ; ",
"$ V g.I.wXyX0X0X0X0X0X0X0X0X0XtX$ qXqX7 7 u.y.y.u.}.}.}.|.oXoXoXoXoX+.+.x.z.K./.wXS.&.< O r r r r 2.1.1.1.1.W 0 A | S = @ $ $ $ ",
"= V g.I.9XtX0X0X0X0X0X0X0X0X0XwXtX0X6Xh h y.t.y.n.{.{.}.|.oXoXoXoXoX+.+.x.z.K./.wXS.%.< + r r r r 1.1.<.<.<.W q Z % $ = = = ; $ ",
"$ S g.I.g.%.tXyX0X0X0X0X0XqXyXj.P 6.8.0XqX7 7 y.y.i.Z.}.|.oXoXoXoXoX+.+.x.z.K./.wX[ + w r r e 2.1.1.1.1.*.q b S n = $ $ $ $ . . ",
"$ C g.I.h.g.:X6XqXqX0X0XqX9X:X#.E 6.9.0XqX7 u y.y.i.Z.~.[.oXoXoXoXoX+.+.x.z.K./.9X[ + w r r r 2.1.1.<.=.o.t b : & & @ & $ $ ; . ",
"= C g.I.~.).&.%.$ yX0X0XyX$XI =.9.9.9.0XqX7 u u.y.i.i.p.'.oXoXoXoXoX+.+.x.z.K.^.;Xb + w r I P 2.1.1.>.q c C n & = G G & @ & = $ ",
"$ m #.u.P.T.C.C.D.D.tX9Xn.#.~ -.9.9.9././.v.v.( [ i.i.i.A.'..XoXoX+X] ] J.J.K.^.;Xb + 0 L I I 2.1.~ ~ c b g @ & $ = G = & & @ $ ",
"= = l } H.I.(.)./ / & rXP W 1.7.9.9.9.9.8.0X0Xy x i.i.i.s.d.[.oXoX+Xs d K.K.K.^.;Xb + L U U P 2.1.q t C l = . = = G G $ @ & = $ ",
"$ $ $ | H.I.(.).P.P./ / =.,.8.8.9.9.9.9.8.0X0Xy h X.q.i.s.d.A.A.oX+Xs d K.K.K.B...6 + L U U I T T Z Z n = $ $ @ @ G = = & & @ $ ",
"& $ $ | H.I.(.).).).K U 1.5.9.9.9.9.9.9.8.qXqX7 u ` X.i.s.f.f.d.oX+Xs d K.K.K.k.N 4 + L U I I q q | % $ $ $ $ & H & = = $ & @ = ",
"& = $ | H.I.(.).).(.~.P.U W 1.7.9.9.9.9.9.9.9.6X:Xu x ` e.f.f.d.f.m.s d K.G.$.B.&X^ + L U q q { S m $ = $ $ = @ & @ & G G & @ & ",
"$ = $ | H.I.).).).).).~.K W 2.7.9.9.9.9.9.9.8.0X:Xu x ` e.f.d.f.d.f.d d K.G.$.B.*X^ + L I q q D S C C l = @ & & @ & & = @ ; & & ",
"$ . = n S C I.I.).).).)._.C.P *.<.8.9.9.9.9.8.0X:Xu x ` ) ) a.f.f.f.d d K.G.$.@.N 4 + 0 q } D 0.8.. rXn & & & @ & & @ & ; @ ; @ ",
"@ = $ $ = { I.I.(.(.(.).).B.K *.1.8.9.9.9.9.8.qX:X7 x ` ` ` a.f.f.m.d d K.G.$.@.N 4 + 0 q S S 0.8.. rXS S l $ $ = $ = @ & ; & H ",
"& . $ = $ B | C I.I.).).).(.).$.I >.<.9.0.0.9.8.l.qXF.y b ` ` ` ` ` d d $.@.d v N 4 + A S <.2.L K 8.8.0.;.B . $ = $ . = & @ H G ",
"& & . $ $ = $ S I.I.(.(.(.).).$.U =.<.8.8.9.0.0.l.0XF.h b ) ) ) ) _ d d $.@.f v N 4 + Z S <.1.I P 9.8.9.;.B . $ $ = = $ $ $ @ = ",
"; & = $ $ $ $ z V C I.I.).).).).).! I <.1.9.9.9.l.0XF.h u u u u u u f d f d f v N 4 + Z S <.1.<.3.P R 9.;.m ; $ $ & & $ $ $ & ; ",
"@ ; $ . . ; $ & # S C.C.~.~.(.).(.o./ =.=.8.8.9.9.<XD.[ x h h u h u f f f f f v N 4 + x c 1.1.1.1.I R 9.;.m $ ; $ = $ = $ $ $ $ ",
"$ = = . @ . . @ @ g n | I.Y.(.).).(.).I I 1.<.9.9.9.L.0Xw.u h h h u f f f f f v N 4 + + O <.1.1.1.I R 9.;.B . $ . $ = . $ . . $ ",
". $ ; $ & @ & @ & @ - { t.V.T.~.).).).:.:.T R 5.5.9.L.0Xw.h h h h u f f f f f v N 4 + + O 1.1.1.1.I R 9.;.B . & $ $ . $ @ & & @ ",
"& . $ . ; . @ @ @ $ $ | { #.I.T.).).).)._.X O 2.3.9.L.0Xw.h h h h u f f f f f v N 4 + + O 1.1.1.1.I R 9.;.S S C S = $ & @ @ @ @ ",
"@ . . = ; $ @ @ @ $ g A 1 2 5 %.Y.Y.Y.(.).V.C.3 3 9 [ 9Xc.h h h h u f f f f f v N 4 + 0 0 1.1.1.1.I R 9.o.1 1 1 A % $ $ . @ @ @ ",
"@ & ; z | | | | B { } A + + + O.I.I.I.(.).).).o + + b wXc.h h h h u f f f f f v N 4 + L I 1.1.1.1.I R 9.o.+ + + A | | | | } g @ ",
". @ @ | 1 + + O } { O + + + + + > > + I.I.).(.~.~.~. XwX{ + + + + + + + + + + + + + + L U I P 1.1.I R 9.7.<.0 + + + + + + O S $ ",
"$ &   | 1 + + O } { + + + + + + + + O U.U._.).).).).>XwX{ O O O + + + + + + + + + + + L U U P 2.1.I R 9.7.1.0 + o O + + + O S = ",
". @ @ | 1 + + O } { + + + + + + + + + X X K K K K K 9 X W 4.4.4.O + + + + + + + + + + L I I P 2.1.I R 9.7.1.0 + >.4.O + + O S @ ",
". . & | < o o X } { X o o o o o o o o o o P P P P P 9 o W 4.4.4.o + + + + + + O o o o q P P K 2.4.I R 0.7.<.q o >.2.o o o o F @ ",
"= ; . - | | | | B S | | | | | | | | | | | | | | | | | } 5 O O O + + + + + + + 4 } | | | | | D K P I Y S | D | | D D | | | | g & ",
"$ $ $ . $ $ & & ; & $ $ & & H @ H & & $ $ . . $ $ $ & S 6 , + + , + , , , , , 6 j @ & @ $ = } I I I Y C G G G ; @ & @ @ H @ & = ",
". . $ . . = G & & $ . $ $ & @ G & @ $ $ $ ; $ = $ . = : C C C S S C C C C S S S @ H H . G G M S C F S # @ $ G G @ G & ; @ H & $ "
};
