/* XPM */
static char *c228934547474708b13bb754d2276f1eODjBA2e7nN2BMy34[] = {
/* columns rows colors chars-per-pixel */
"64 64 21 1 ",
"  c #062600",
". c #0D3502",
"X c #26232F",
"o c #14430A",
"O c #1C5211",
"+ c #236014",
"@ c #266E1C",
"# c #2E7923",
"$ c #1B377F",
"% c #A66E46",
"& c #A75D69",
"* c #008B12",
"= c #35872A",
"- c #3C9631",
"; c #3EF33F",
": c #D89511",
"> c #EAD11E",
", c #147ABF",
"< c #40AFDD",
"1 c #EC9EA4",
"2 c gray99",
/* pixels */
".o+#OO+ooOO+.O#-@+OOOOoOOOO#..OOOO.+.#O+@O=@=Oo.O+-##o=O#+o-#OOO",
"OO..@OO++@.O.@++o-o+O@##oOO..O@O@O#+...+-O@==#@@ oo++@-oo#o+O.+O",
"#@@+OOOO=o@@#O..++O-ooo-+O.@@#oo+OO.oOO+#O+@oooo-=OOo++++#+o@.o.",
".o=+@OOO@++O..+OO+O=@+=ooOO.-o=-oOO.OO@o@O-OO@+#-oo=++oo-+++OOo.",
"#O+oOO...Oo+O..OO@o=+=O-@O..+=@=oO#.O@o+@=o.OO+oo@-o+o#++o#o@OO.",
"Oo@OO@O#+.@-#@OOOOo===@ooO.#o+-o+O#.O@+-===O.@O.#=#o@+-oO@++OOO@",
"O@@OO@oO...#@o@.OOO+=++O@#O.++..@@.OO@o##oo+@@O.+=oOOo+@.Oo@OOO@",
"o@OOOO@#.+OO##O.OO@o+OOOOO.@O#.+OOO@+OoOOO@o+o@@+@-O.@o@.O@OO@+O",
"+oo+@O.@ @OOo+@.O@O+oO..OO#OOO.+..O+o@@#.@@OO@+oo###oO@OOOOOO+o+",
"++++@.O++++++o@@@OO@@@..OO.OO+..#@@O+OOO.OOOOOO@Ooo+=+oo+@OOOO##",
"++++@ =++o+#oo@O.@OOoo@O.O.+.+.O@oo@O#.O@O.O@@OOOo-+Oo+-oO@OO++o",
"##oOO+#-+@O+++OOOO@O#@+@O.#.ooO@+O@@.OOO@O.OOO@@o--+.o==oo+@O++o",
"-+oOOo#oo.Oo=oOOoO.O..+=..O#oo.++OOO@O.OO#.#O.O@+o#o+=o--+o+OO+o",
"o#+=oo+#-oo++o+-+= OOXXXXXXXXXXXXXXXXXXXXXX.OO.O@.O+#+oo++++oO=+",
"#oo##o+@@==oo++O@=+@OXXXXXXXXXXXXXXXXXXXXXXO#O@+o+o##oo++o+-++o#",
"++o++#o+@#=@o+++=@=XX<<<<,,,<<<<<<<<,,,<<<<XX@+++##oo#++o+#+@++o",
"++o+##o+@=@=+++++O-XX<<<<,,,<<<<<<<<,,,<<<<XXO++#+ooo-#+O@o-O+oO",
"O++oo#@==O=@=o++++oXX<<<<,,,<<<<<<<<,,,<<<<XX+o+#++-#o#ooOo+###O",
"oo@O++@=Oo+===o+XXX,,<<,,<<<<<<<<<<<<<<,,<<,,XXXo+o-+o@o##o+o+++",
"+@OO##++++o@==@oXXX,,<<,,<<<<<<<<<<<<<<,,<<,,XXXo+#o+oO+##o@O+++",
"OO@Oo#oo+-+OOO==XXXXX<<,,<<<<<<<<<<<<<<,,<<XXXXXo++O@@Ooo+=.@o++",
"Oo+O@O@Ooo@==.=OXXXXX<<,,<<<<<<<<<<<<<<,,<<XXXXX=# .OO@@+-ooO+oo",
"++=OOOO@o-=@O@@=XXXXX<<,,<<<<<<<<<<<<<<,,<<XXXXX#@o@OOO..##++++=",
"@#o+O@O@+@@==-XX11111<<,,<<<<<<<<<<<<<<,,<<11111XX++=O#.Oo##++o+",
"O@O=.OOOo@O#@oXX11111<<,,<<<<<<<<<<<<<<,,<<11111XXO#o+OO@@+o++++",
"O==++.O@+-===OXX111&&<<$$<<<<<<<<<<<<<<$$<<&&111XXO#+++OOO #=Oo=",
"==o++@OOo+@oo=XX111&&<<$$<<<<<<<<<<<<<<$$<<&&111XX#@@+o@@.@#+==O",
"#@+oo+o@OOo##o==XXX<<,,XXXXX,,,,,,,,XXXXX,,<<XXXooo--+ooOO+oo#=#",
"=@=++o=+O@O++-o=XXX<<,,XXXXX,,,,,,,,XXXXX,,<<XXX###oo#+@@O@@.oO#",
"=@O=+o++OOOOo+o+XXX<<,,XXXXX,,,,,,,,XXXXX,,<<XXXo++O+ooO.@@..O-O",
"@=@=@-+o@.OOOOO+XXX<<,,XX222XX1111XX222XX,,<<XXXooOO@++OOOO#.+#O",
"+o@OO@@+OOO.OO.@XXX<<,,XX222XX1111XX222XX,,<<XXX#+@Oo+++OO@.OO++",
"O++#+O=#O.@@OO.OXXX<<<<11222;;1111;;22211<<<<XXX+#oo-o++=+o@.+.O",
".@++#@O+o@O@@.OOXXX<<<<11222;;1111;;22211<<<<XXX+++=@-o+o++@.o.#",
"OOOo+@++=OOOO@OOXXX<<<<11222;;1111;;22211<<<<XXXO+@=O@o+OOO@OOO#",
"O.O@o+-O+o+OOOOOOOOXX<<11222**1111**22211<<XX+@O.#OO@##+@.O@oOOO",
"@O@o+oO=O+o-oOOOO@OXX<<11222**1111**22211<<XXo+O+++-O@O+.OO@@@#O",
"O=+o@@+-#-@@+OOO.OOXXXX111111111111111111XXXX+@o++o+=@@+o@OOOO..",
"O++oOO..o+-@#+.OO..XXXX111111111111111111XXXX+oo+++o==@+++o+OO#.",
"@++@O.o.OOo+O+OOXXX****XXXXXXXXXXXXXXXXXX****XXXo+++o+++@==+o+@O",
"Ooo+O.OOOOo+=#OOXXX****XXXXXXXXXXXXXXXXXX****XXX+o+++Oo+O@=@++oO",
"@@O@++@O@O+=@+O.XXX****XXXXXXXXXXXXXXXXXX****XXX+#+o+@.@@==Oo+@O",
"OOOO@++oOO=+++XX11111**;;%%%;;1111;;%%%;;**11111XX+O@OOoo=@@++oO",
"+OO..O@@OOOoo+XX11111**;;%%%;;1111;;%%%;;**11111XXOOOOO+-+@@O+o@",
"+@OOOOOo@.@@XX11111XX**;;%%%;;;;;;;;%%%;;**XX11111XXOO@o+o+==+o+",
"O@O@O.O@@OOOXX11111XX**;;%%%;;;;;;;;%%%;;**XX11111XX@o++o++@o#++",
"O.@OOO#O.O.OXX11111XX**;;%%%;;;;;;;;%%%;;**XX11111XX+++o++o+#o#o",
"o@OO@OO.+oOOXX11111XXXX;;%%%;;;;;;;;%%%;;XXXX11111XXO@OO@O@o+#+-",
"+.O@O@.+oo.@XX11111XXXX;;%%%;;;;;;;;%%%;;XXXX11111XXOO.O@O.@+o-=",
"++.OO@OO.+o.@oXXXXXXX,,XXXXXXX>>>>XXXXXXX,,XXXXXXX@O.+.OO@@OOOo@",
"#+@OOOOOO+o.O+XXXXXXX,,XXXXXXX>>>>XXXXXXX,,XXXXXXXOOo.#OO++OOO+#",
"o#O..#O+ooo+OoXXXXXXX,,XXXXXXX>>>>XXXXXXX,,XXXXXXX@.O.O#O@O@OOOO",
"O@@.o..ooooOOo@==oOXX,,<<<<<<<::::<<<<<<<,,XX.+-#o++OO.O.O@.O..O",
".O#O+o+o+oOOo-O@oO@XX,,<<<<<<<::::<<<<<<<,,XXo++++o+-@.+OO.Oo++o",
"+.O.#.oooOOO#==-OO@XXXX,,<<<<<<<<<<<<<<,,XXXX#-o+oo#+=..O@O+oooo",
"o..@#OoooOOO+==o.O@XXXX,,<<<<<<<<<<<<<<,,XXXX=o#+++@O@@OOOOO.ooo",
"o+#OO.+.+OO.o#o@XXX1111XXXXXXXXXXXXXXXXXX1111XXXO#+...o-+OO@O#.o",
".oooooOOO..@+@.OXXX1111XXXXXXXXXXXXXXXXXX1111XXX#-o..Oo#-o@+=oOO",
"O+ oo.O@OOO@@..@XXX1111XXXXXXXXXXXXXXXXXX1111XXXoo++@O@++ooo++#@",
".oo o#@@O@@O.OO+XXX111111&&&XXXXXXXX&&&111111XXX++o-+O.O.=++#==o",
"..+o.OOOOO@OOO+oXXX111111&&&XXXXXXXX&&&111111XXX++++@oO.@+=@o+-o",
"@#.O#O.+=oOO+#o+XXXXXXXXXXXXXXXXXXXXXXXXXXXXXXXX-o+@=@#oO++-+oo+",
"OOO.OO++#+OO++-oXXXXXXXXXXXXXXXXXXXXXXXXXXXXXXXX++++===#o+oo-o+@",
"..O..@=++O.OO+o=XXXXXXXXXXXXXXXXXXXXXXXXXXXXXXXXo-=ooO==o=+#o-+O"
};
