/* XPM */
static char *a0dcbac5990c4ec5d7e6e7e613be8951EKeEPSLBWw4KMH4F[] = {
/* columns rows colors chars-per-pixel */
"64 64 256 2 ",
"   c None",
".  c #060000",
"X  c black",
"o  c gray18",
"O  c gray81",
"+  c #020202",
"@  c black",
"#  c black",
"$  c black",
"%  c #141C06",
"&  c #0A1100",
"*  c #000600",
"=  c black",
"-  c #311F11",
";  c #2A180A",
":  c #231102",
">  c #CF8F8F",
",  c #C88484",
"<  c #C57D7D",
"1  c #BD7272",
"2  c #BA6B6B",
"3  c #B36464",
"4  c #AF5959",
"5  c #A85252",
"6  c #A14A4A",
"7  c #9D4343",
"8  c #963C3C",
"9  c #923838",
"0  c #8B3131",
"q  c #872A2A",
"w  c #802323",
"e  c #7D1F1F",
"r  c #751818",
"t  c #721414",
"y  c #6B1111",
"u  c #670A0A",
"i  c #600606",
"p  c #5C0202",
"a  c #550000",
"s  c #520000",
"d  c #4A0000",
"f  c #470000",
"g  c #400000",
"h  c #3C0000",
"j  c #350000",
"k  c #310000",
"l  c #2A0000",
"z  c #260000",
"x  c #CFBDB3",
"c  c #CFB6A8",
"v  c #CFAF9D",
"b  c #CFA892",
"n  c #CFA48B",
"m  c #CF9D80",
"M  c #CF9675",
"N  c #CF926E",
"B  c #CF8B60",
"V  c #C88459",
"C  c #C17D52",
"Z  c #BA754A",
"A  c #B36E43",
"S  c #AB673C",
"D  c #A46035",
"F  c #A15C31",
"G  c #96592E",
"H  c #8B522A",
"J  c #844E26",
"K  c #7D4A23",
"L  c #75431F",
"P  c #6B401C",
"I  c #643818",
"U  c #5C3514",
"Y  c #553111",
"T  c #4A2A0D",
"R  c #40260A",
"E  c #352306",
"W  c #2E1C02",
"Q  c #231400",
"!  c #181100",
"~  c #110A00",
"^  c #C1C1C1",
"/  c gray73",
"(  c gray70",
")  c #AFAFAF",
"_  c gray66",
"`  c gray63",
"'  c #9D9D9D",
"]  c gray59",
"[  c gray56",
"{  c #8B8B8B",
"}  c #848484",
"|  c #808080",
" . c #797979",
".. c #727272",
"X. c gray43",
"o. c #676767",
"O. c #606060",
"+. c gray36",
"@. c #555555",
"#. c #4E4E4E",
"$. c gray29",
"%. c #434343",
"&. c #3C3C3C",
"*. c gray22",
"=. c #313131",
"-. c #2A2A2A",
";. c gray15",
":. c gray12",
">. c gray11",
",. c gray8",
"<. c gray5",
"1. c gray4",
"2. c #55CF4E",
"3. c #4EC147",
"4. c #47B340",
"5. c #40A438",
"6. c #3C9631",
"7. c #35872A",
"8. c #2E7923",
"9. c #266E1C",
"0. c #236014",
"q. c #1C5211",
"w. c #14430A",
"e. c #0D3502",
"r. c #062600",
"t. c #001800",
"y. c #000A00",
"u. c black",
"i. c #96806B",
"p. c #8F7964",
"a. c #87725C",
"s. c #806B55",
"d. c #79644E",
"f. c #755C4A",
"g. c #6E5943",
"h. c #67523C",
"j. c #604A38",
"k. c #594331",
"l. c #55402E",
"z. c #4E3826",
"x. c #473523",
"c. c #402E1C",
"v. c #382618",
"b. c #352314",
"n. c #796043",
"m. c #6B5535",
"M. c #604A2E",
"N. c #554023",
"B. c #473518",
"V. c #3C2A11",
"C. c #311F0A",
"Z. c #261802",
"A. c #595C43",
"S. c #4E5238",
"D. c #474A31",
"F. c #3C432A",
"G. c #35381F",
"H. c #2A3118",
"J. c #232A11",
"K. c #1C230D",
"L. c #CFCF52",
"P. c #BDAF38",
"I. c #AB9226",
"U. c #997514",
"Y. c #875906",
"T. c #753C00",
"R. c #642600",
"E. c #521100",
"W. c gray81",
"Q. c #CFAFAF",
"!. c #CF9292",
"~. c #CF7575",
"^. c #CF5959",
"/. c #CF4040",
"(. c #CF2323",
"). c #CF0606",
"_. c #CF0000",
"`. c #C10000",
"'. c #B60000",
"]. c #AB0000",
"[. c #A10000",
"{. c #960000",
"}. c #8B0000",
"|. c #800000",
" X c #750000",
".X c #670000",
"XX c #5C0000",
"oX c #520000",
"OX c #470000",
"+X c #3C0000",
"@X c #310000",
"#X c #260000",
"$X c #BABACF",
"%X c #9D9DCF",
"&X c #8484CF",
"*X c #6B6BCF",
"=X c #5252CF",
"-X c #3535CF",
";X c #1C1CCF",
":X c #0202CF",
">X c #0000CF",
",X c #0000B6",
"<X c #0000A1",
"1X c #00008B",
"2X c #000075",
"3X c #000060",
"4X c #00004A",
"5X c #000035",
"6X c gray81",
"7X c #CFBDAF",
"8X c #CFAB92",
"9X c #CF9D75",
"0X c #CF8B59",
"qX c #CF7D3C",
"wX c #CF6B1F",
"eX c #CF5C02",
"rX c #C55200",
"tX c #BD4E00",
"yX c #B34700",
"uX c #AB4000",
"iX c #A13800",
"pX c #993100",
"aX c #8F2A00",
"sX c #872600",
"dX c gray81",
"fX c #CFCFAB",
"gX c #CFCF8B",
"hX c #CFCF6B",
"jX c #CFCF4A",
"kX c #CFCF2A",
"lX c #CFCF0A",
"zX c #CFCF00",
"xX c #802300",
"cX c #791C00",
"vX c #6E1400",
"bX c #640A00",
"nX c #311F0D",
"mX c #261402",
"MX c #1C0A00",
"NX c #140200",
"BX c #000035",
"VX c #00002A",
"CX c #00001F",
"ZX c #000014",
"AX c #00000A",
"SX c black",
"DX c black",
"FX c black",
"GX c #CF7926",
"HX c #CFBA2E",
"JX c #CF59CF",
"KX c #CF00CF",
"LX c #A400A4",
"PX c #790075",
"IX c #4E004A",
"UX c #804A4A",
/* pixels */
"e.w.0.8.q.q.0.w.w.q.q.0.e.q.8.6.9.0.q.q.q.q.w.q.q.q.q.8.e.e.q.q.q.q.e.0.e.8.q.0.9.q.7.9.7.q.w.e.q.0.6.8.8.w.7.q.8.0.w.6.8.q.q.q.",
"q.q.e.e.9.q.q.0.0.9.e.q.e.9.0.0.w.6.w.0.q.9.8.8.w.q.q.e.e.q.9.q.9.q.8.0.e.e.e.0.6.q.9.7.7.8.9.9.r.w.w.0.0.9.6.w.w.8.w.0.q.e.0.q.",
"8.9.9.0.q.q.q.q.7.w.9.9.8.q.e.e.0.0.q.6.w.w.w.6.0.q.e.9.9.8.w.w.0.q.q.e.w.q.q.0.8.q.0.9.w.w.w.w.6.7.q.q.w.0.0.0.0.8.0.w.9.e.w.e.",
"e.w.7.0.9.q.q.q.9.0.0.q.e.e.0.q.q.0.q.7.9.0.7.w.w.q.q.e.6.w.7.6.w.q.q.e.q.q.9.w.9.q.6.q.q.9.0.8.6.w.w.7.0.0.w.w.6.0.0.0.q.q.w.e.",
"8.q.0.w.q.q.e.e.e.q.w.0.q.e.e.q.q.9.w.7.0.7.q.6.9.q.e.e.0.7.9.7.w.q.8.e.q.9.w.0.9.7.w.e.q.q.0.w.w.9.6.w.0.w.8.0.0.w.8.w.9.q.q.e.",
"q.w.9.q.q.9.q.8.0.e.9.6.8.9.q.q.q.q.w.7.7.7.9.w.w.q.e.8.w.0.6.w.0.q.8.e.q.9.0.6.7.7.7.q.e.9.q.e.8.7.8.w.9.0.6.w.q.9.0.0.q.q.q.9.",
"q.9.9.q.q.9.w.q.e.e.e.8.9.w.9.e.q.q.q.0.7.0.0.q.9.8.q.e.0.0.e.e.9.9.e.q.q.9.w.8.8.w.w.0.9.9.q.e.0.7.w.q.q.w.0.9.e.q.w.9.q.q.q.9.",
"w.9.q.q.q.q.9.8.e.0.q.q.8.8.q.e.q.q.9.w.0.q.q.q.q.q.e.9.q.8.e.0.q.q.q.9.0.q.w.q.q.q.9.w.0.w.9.9.0.9.6.q.e.9.w.9.e.q.9.q.q.9.0.q.",
"0.w.w.0.9.q.e.9.r.9.q.q.w.0.9.e.q.9.q.0.w.q.e.e.q.q.8.q.q.q.e.0.e.e.q.0.w.9.9.8.e.9.9.q.q.9.0.w.w.8.8.8.w.q.9.q.q.q.q.q.q.0.w.0.",
"0.0.0.0.9.e.q.0.0.0.0.0.0.w.9.9.9.q.q.9.9.9.e.e.q.q.e.q.q.0.e.e.8.9.9.q.0.q.q.q.e.q.q.q.q.q.q.9.q.w.w.0.7.0.w.w.0.9.q.q.q.q.8.8.",
"0.0.0.0.9.r.7.0.0.w.0.8.w.w.9.q.e.9.q.q.w.w.9.q.e.q.e.0.e.0.e.q.9.w.w.9.q.8.e.q.9.q.e.q.9.9.q.q.q.w.6.0.q.w.0.6.w.q.9.q.q.0.0.w.",
"8.8.w.q.q.0.8.6.0.9.q.0.0.0.q.q.q.q.9.q.8.9.0.9.q.e.8.e.w.w.q.9.0.q.9.9.e.q.q.q.9.q.e.q.q.q.9.9.w.6.6.0.e.w.7.7.w.w.0.9.q.0.0.w.",
"6.0.w.q.q.w.8.w.w.e.q.w.7.w.q.q.w.q.e.q.e.e.0.7.e.e.q.8.w.w.e.0.0.q.q.q.9.q.e.q.q.8.e.8.q.e.q.9.0.w.8.w.0.7.w.6.6.0.w.0.q.q.0.w.",
"w.8.0.7.w.w.0.8.6.w.w.0.0.w.0.6.0.7.r.q.q.e.9.0.9.e.8.e.0.e.9.0.0.q.q.e.8.q.q.q.e.e.9.e.q.q.e.q.9.e.q.0.8.0.w.w.0.0.0.0.w.q.7.0.",
"8.w.w.8.8.w.0.9.9.7.7.w.w.0.0.q.9.7.0.9.q.q.q.w.9.q.e.e.e.9.7.0.9.e.0.e.q.q.8.e.0.q.9.q.8.q.9.0.w.0.w.8.8.w.w.0.0.w.0.6.0.0.w.8.",
"0.0.w.0.0.8.w.0.9.8.7.9.w.0.0.0.7.9.7.0.e.q.q.q.9.9.q.q.q.q.7.w.9.q.q.e.q.8.e.e.e.q.0.w.e.9.0.0.0.8.8.w.w.8.0.0.w.0.8.0.9.0.0.w.",
"0.0.w.0.8.8.w.0.9.7.9.7.0.0.0.0.0.q.6.w.0.0.9.e.e.q.9.e.q.e.9.0.9.q.q.q.q.e.q.q.e.q.6.6.w.q.0.0.8.0.w.w.w.6.8.0.q.9.w.6.q.0.w.q.",
"q.0.0.w.w.8.9.7.7.q.7.9.7.w.0.0.0.0.w.q.6.w.q.q.q.q.9.9.8.q.q.w.0.w.8.8.9.9.9.9.q.q.0.9.0.0.w.0.8.0.0.6.8.w.8.w.w.q.w.0.8.8.8.q.",
"w.w.9.q.0.0.9.7.q.w.0.7.7.7.w.0.w.8.8.9.6.w.0.w.9.e.q.8.e.q.q.9.w.0.6.w.0.w.w.q.9.q.9.0.8.0.w.0.w.0.w.6.0.w.9.w.8.8.w.0.w.0.0.0.",
"0.9.q.q.8.8.0.0.0.0.w.9.7.7.9.w.8.0.q.9.e.9.7.9.w.q.e.e.e.0.e.q.8.9.6.w.w.6.7.q.q.q.q.e.w.8.8.w.w.0.8.w.0.w.q.0.8.8.w.9.q.0.0.0.",
"q.q.9.q.w.8.w.w.0.6.0.q.q.q.7.7.w.w.0.6.9.9.7.7.8.9.q.q.w.e.q.q.8.0.w.6.7.9.w.w.0.q.q.q.0.q.7.9.w.0.0.q.9.9.q.w.w.0.7.e.9.w.0.0.",
"q.w.0.q.9.q.9.q.w.w.9.7.7.e.7.q.7.9.w.w.7.6.w.7.0.w.9.q.0.e.8.w.0.w.0.8.9.w.8.8.0.0.w.6.8.0.7.7.7.8.r.e.q.q.9.9.0.6.w.w.q.0.w.w.",
"0.0.7.q.q.q.q.9.w.6.7.9.q.9.9.7.7.7.9.6.0.w.w.0.0.w.9.q.q.e.9.0.w.0.w.0.w.8.6.w.q.0.8.w.8.w.w.9.8.9.w.9.q.q.q.e.e.8.8.0.0.0.0.7.",
"9.8.w.0.q.9.q.9.0.9.9.7.7.6.w.0.w.9.7.8.w.q.q.0.0.w.0.0.q.q.w.0.0.q.0.9.q.9.w.9.e.w.8.w.w.q.q.8.7.7.0.0.7.q.8.e.q.w.8.8.0.0.w.0.",
"q.9.q.7.e.q.q.q.w.9.q.8.9.w.0.0.w.7.w.9.q.9.w.0.0.9.q.0.0.q.0.6.8.w.q.9.e.e.q.q.q.0.8.8.0.0.e.q.w.9.q.8.w.0.q.q.9.9.0.w.0.0.0.0.",
"q.7.7.0.0.e.q.9.0.6.7.7.7.q.9.8.w.9.e.e.q.q.9.9.q.e.q.w.6.w.w.6.0.0.9.e.q.q.q.w.8.w.0.0.6.0.q.q.0.0.q.8.0.0.0.q.q.q.r.8.7.q.w.7.",
"7.7.w.0.0.9.q.q.w.0.9.w.w.7.7.9.9.w.e.w.e.q.q.q.e.q.q.w.0.6.0.w.0.0.9.e.e.9.0.0.8.8.w.8.0.0.0.q.q.7.8.9.9.0.w.9.9.e.9.8.0.7.7.q.",
"8.9.0.w.w.0.w.9.q.q.w.8.8.w.7.7.7.6.q.e.8.q.e.8.q.e.q.0.9.q.0.w.0.w.q.q.q.q.7.w.8.w.9.w.6.0.0.0.w.w.w.6.6.0.w.w.q.q.0.w.w.8.7.8.",
"7.9.7.0.0.w.7.0.q.9.q.0.0.6.w.7.7.q.0.7.9.e.9.q.e.e.q.0.q.6.0.0.q.0.0.0.0.w.0.0.9.e.e.9.w.0.0.0.8.8.8.w.w.8.0.9.9.q.9.9.e.w.q.8.",
"7.9.q.7.0.w.0.0.q.q.q.q.w.0.w.0.9.7.0.0.0.q.q.9.q.q.9.7.8.0.0.w.9.w.0.0.0.0.9.q.q.q.e.q.q.w.8.0.w.0.0.q.0.w.w.q.e.9.9.e.e.q.6.q.",
"9.7.9.7.9.6.0.w.9.e.q.q.q.q.q.0.q.7.w.0.w.9.q.q.q.9.w.w.w.w.0.w.q.9.q.w.0.0.w.e.8.q.8.e.9.0.8.w.w.w.q.q.9.0.0.q.q.q.q.8.e.0.8.q.",
"0.w.9.q.q.9.9.0.q.q.q.e.q.q.e.9.0.0.8.w.w.9.9.q.q.9.9.q.q.9.0.7.w.w.0.w.0.8.0.9.e.q.e.q.9.0.0.0.8.0.9.q.w.0.0.0.q.q.9.e.q.q.0.0.",
"q.0.0.8.0.q.7.8.q.e.9.9.q.q.e.q.0.8.w.6.0.w.q.q.9.w.w.q.q.q.q.0.8.7.w.6.0.0.w.q.9.q.q.q.q.w.8.8.0.8.w.w.6.w.0.0.7.0.w.9.e.0.e.q.",
"e.9.0.0.8.9.q.0.w.9.q.9.9.e.q.q.q.q.0.9.6.w.q.9.q.9.0.0.0.e.e.q.0.w.0.w.8.6.0.0.e.9.9.0.w.0.0.w.0.0.0.7.9.6.w.0.w.0.0.9.e.w.e.8.",
"q.q.q.w.0.9.0.0.7.q.q.q.q.9.q.q.q.q.q.0.7.w.w.w.0.q.w.8.8.0.9.q.w.8.9.0.w.0.8.w.0.q.w.0.8.0.0.e.q.0.9.7.q.9.w.0.q.q.q.9.q.q.q.8.",
"q.e.q.9.w.0.6.q.0.w.0.q.q.q.q.q.q.q.q.0.7.9.9.8.w.q.0.0.0.0.w.w.8.q.7.6.w.0.w.0.8.w.0.6.0.0.9.q.e.8.q.q.9.8.8.0.9.e.q.9.w.q.q.q.",
"9.q.9.w.0.w.q.7.q.0.w.6.w.q.q.q.q.9.q.0.9.7.7.9.8.0.w.0.w.0.0.8.0.9.0.0.8.0.0.0.8.0.0.0.8.w.0.q.0.0.0.6.q.9.q.0.e.q.q.9.9.9.8.q.",
"q.7.0.w.9.9.0.6.8.6.9.9.0.q.q.q.e.q.q.0.9.9.q.q.9.8.0.w.0.w.w.0.6.0.0.q.0.0.0.w.0.8.0.0.0.0.9.w.0.0.w.0.7.9.9.0.w.9.q.q.q.q.e.e.",
"q.0.0.w.q.q.e.e.w.0.6.9.8.0.e.q.q.e.e.9.0.8.8.0.8.0.8.w.0.8.0.w.w.0.q.e.w.8.7.w.0.w.0.8.0.0.w.w.0.0.0.w.7.7.9.0.0.0.w.0.q.q.8.e.",
"9.0.0.9.q.e.w.e.q.q.w.0.q.0.q.q.q.0.e.e.w.0.0.0.w.0.0.0.6.0.w.q.0.0.0.w.8.0.w.w.9.0.0.0.w.w.0.0.w.0.0.0.w.0.0.0.9.7.7.0.w.0.9.q.",
"q.w.w.0.q.e.q.q.q.q.w.0.7.8.q.q.e.9.e.9.0.8.0.w.0.0.8.w.0.8.q.9.q.0.7.8.0.0.0.9.q.w.0.q.9.0.0.w.0.w.0.0.0.q.w.0.q.9.7.9.0.0.w.q.",
"9.9.q.9.0.0.9.q.9.q.0.7.9.0.q.e.9.9.9.q.9.0.0.w.0.0.q.9.q.w.0.w.w.e.w.0.w.q.q.8.e.9.9.q.e.9.0.0.0.8.0.w.0.9.e.9.9.7.7.q.w.0.9.q.",
"q.q.q.q.9.0.0.w.q.q.7.0.0.0.q.9.w.0.e.e.e.q.q.q.9.q.q.e.e.9.8.6.0.0.e.8.q.9.q.e.e.e.9.q.q.q.q.q.0.w.0.q.9.q.q.w.w.7.9.9.0.0.w.q.",
"0.q.q.e.e.q.9.9.q.q.q.w.w.0.0.w.8.9.e.w.e.q.e.q.q.q.8.e.q.q.w.q.7.6.w.q.e.9.q.e.w.q.9.0.q.q.e.q.q.9.q.q.q.q.q.0.6.0.9.9.q.0.w.9.",
"0.9.q.q.q.q.q.w.9.e.9.9.q.w.0.6.w.9.e.q.8.q.q.q.q.e.9.9.e.e.q.7.7.8.9.q.q.q.q.8.e.e.9.9.q.q.e.q.q.q.q.9.q.q.9.w.0.w.0.7.7.0.w.0.",
"q.9.q.9.q.e.q.9.9.q.q.q.9.q.0.8.w.0.q.9.e.9.q.q.e.q.q.9.8.e.0.8.0.r.e.e.9.9.e.8.8.q.e.9.q.9.q.q.e.q.9.q.9.w.0.0.w.0.0.9.w.8.0.0.",
"q.e.9.q.q.q.8.q.e.q.e.q.9.q.e.q.6.0.7.e.q.8.e.0.w.e.9.0.e.q.0.0.q.8.e.9.0.0.q.e.q.e.q.e.8.q.9.q.q.e.q.q.0.0.0.w.0.0.w.0.8.w.8.w.",
"w.9.q.q.9.q.q.e.0.w.q.q.0.9.e.q.w.6.w.w.q.e.w.w.w.e.9.9.q.9.q.q.q.8.q.q.0.0.q.q.8.9.9.q.e.e.e.8.e.e.q.9.q.9.q.q.9.q.9.w.0.8.0.6.",
"0.e.q.9.q.9.e.0.w.w.e.9.9.q.9.q.w.8.6.6.6.q.e.w.0.q.e.q.q.q.q.q.e.e.q.e.q.9.q.q.q.q.9.q.e.e.8.q.e.q.q.q.q.q.e.q.9.q.e.9.0.w.6.7.",
"0.0.e.q.q.9.q.q.e.0.w.e.9.w.w.0.w.w.0.9.0.0.q.q.q.q.e.w.w.0.q.0.w.w.w.8.9.q.q.q.9.q.e.q.8.q.e.8.e.9.9.q.e.0.e.q.q.9.9.q.q.q.w.9.",
"8.0.9.q.q.q.q.q.q.0.w.e.q.0.6.9.7.0.w.9.0.w.0.9.e.q.0.w.w.w.e.q.w.w.q.e.e.9.9.e.q.9.e.q.q.q.e.e.q.0.q.q.w.e.8.q.q.0.0.q.q.q.0.8.",
"w.8.q.e.e.8.q.0.w.w.w.0.q.w.w.7.q.6.e.e.q.0.w.0.9.e.w.w.w.0.q.q.q.e.q.8.e.q.9.q.8.9.q.q.e.q.q.q.7.0.9.e.q.e.q.8.q.9.q.9.q.q.q.q.",
"q.9.9.e.w.e.e.w.w.w.w.q.q.w.9.7.7.w.q.e.8.q.0.w.9.e.w.w.0.q.e.q.q.q.q.q.9.q.9.e.e.e.9.q.8.e.0.6.8.w.0.0.q.q.e.q.e.q.9.e.q.e.e.q.",
"e.q.8.q.0.w.0.w.0.w.q.q.w.6.q.9.w.q.9.q.q.q.9.0.0.w.q.e.q.q.e.e.q.9.9.q.9.q.8.q.e.8.e.q.9.w.0.0.0.0.w.0.6.9.e.0.q.q.e.q.w.0.0.w.",
"0.e.q.e.8.e.w.w.w.q.q.q.8.7.7.6.q.q.9.q.e.q.9.w.6.6.0.q.e.0.q.q.q.9.q.e.q.q.q.e.q.8.e.e.0.8.6.w.0.w.w.8.0.7.e.e.q.9.q.0.w.w.w.w.",
"w.e.e.9.8.q.w.w.w.q.q.q.0.7.7.w.e.q.9.9.q.q.q.w.8.0.q.8.0.w.e.9.9.e.e.e.w.e.e.8.9.q.e.q.0.7.w.8.0.0.0.9.q.9.9.q.q.q.q.q.e.w.w.w.",
"w.0.8.q.q.e.0.e.0.q.q.e.w.8.w.9.q.q.w.0.w.9.9.9.9.q.q.e.e.w.e.9.q.q.q.0.0.w.0.e.0.0.0.9.9.q.7.0.q.8.0.e.e.e.w.6.0.q.q.9.q.8.e.w.",
"e.w.w.w.w.w.q.q.q.e.e.9.0.9.e.q.w.0.q.0.0.0.e.q.e.e.8.e.0.0.q.q.q.9.q.q.e.e.0.e.q.6.7.8.7.7.w.8.8.6.w.e.e.q.w.8.6.w.9.0.7.w.q.q.",
"q.0.r.w.w.e.q.9.q.q.q.9.9.e.e.9.8.8.w.w.7.9.e.w.w.q.q.q.e.e.q.q.q.q.8.q.8.q.e.e.q.0.7.8.8.q.0.w.w.w.0.0.9.q.9.0.0.w.w.w.0.0.8.9.",
"e.w.w.r.w.8.9.9.q.9.9.q.e.q.q.0.0.w.6.9.w.e.w.w.0.e.q.8.q.q.0.e.w.w.e.e.9.9.e.8.q.w.0.7.9.9.w.0.0.0.w.6.0.q.e.q.e.7.0.0.8.7.7.w.",
"e.e.0.w.e.q.q.q.q.q.9.q.q.q.0.w.0.q.7.7.9.e.0.w.e.8.q.e.q.e.0.w.r.w.0.q.q.9.0.q.9.9.w.9.7.7.7.0.0.0.0.0.9.w.q.e.9.0.7.9.w.0.6.w.",
"9.8.e.q.8.q.e.0.7.w.q.q.0.8.w.0.w.7.7.0.q.e.0.0.e.9.q.9.q.e.0.w.0.e.q.e.q.9.w.0.q.q.w.6.q.7.q.9.6.w.0.9.7.9.8.w.q.0.0.6.0.w.w.0.",
"q.q.q.e.q.q.0.0.8.0.q.q.0.0.6.w.6.0.0.q.q.e.e.q.q.q.0.9.e.0.e.8.e.8.0.0.q.q.0.0.w.w.0.w.q.9.7.7.0.0.0.0.7.7.7.8.w.0.w.w.6.w.0.9.",
"e.e.q.e.e.9.7.0.0.q.e.q.q.0.w.7.0.w.q.q.q.8.q.9.q.e.9.9.q.w.q.9.9.e.e.w.e.9.0.8.w.6.6.e.7.7.7.0.w.6.7.w.w.q.7.7.w.7.0.8.w.6.0.q."
};
