/* XPM */
static char *_0b0949fe00b4e31c60948cc5caca580HOhXerPDyTZiqAgd[] = {
/* columns rows colors chars-per-pixel */
"64 64 21 1 ",
"  c #062600",
". c #0D3502",
"X c #26232F",
"o c #14430A",
"O c #1C5211",
"+ c #236014",
"@ c #266E1C",
"# c #2E7923",
"$ c #1B377F",
"% c #A66E46",
"& c #A75D69",
"* c #008B12",
"= c #35872A",
"- c #3C9631",
"; c #3EF33F",
": c #D89511",
"> c #EAD11E",
", c #147ABF",
"< c #40AFDD",
"1 c #EC9EA4",
"2 c gray99",
/* pixels */
".o+#OO+ooOO+.O#-@+OOOOoOOOO#..OOOO.+.#O+@O=@=Oo.O+-##o=O#+o-#OOO",
"OO..@OO++@.O.@++o-o+O@##oOO..O@O@O#+...+-O@==#@@ oo++@-oo#o+O.+O",
"#@@+OOOO=o@@#O..++O-ooo-+O.@@#oo+OO.oOO+#O+@oooo-=OOo++++#+o@.o.",
".o=+@OOO@++O..+OO+O=@+=ooOO.-o=-oOO.OO@o@O-OO@+#-oo=++oo-+++OOo.",
"#O+oOO...Oo+O..OO@o=+=O-@O..+=@=oO#.O@o+@=o.OO+oo@-o+o#++o#o@OO.",
"Oo@OO@O#+.@-#@OOOOo===@ooO.#o+-o+O#.O@+-===O.@O.#=#o@+-oO@++OOO@",
"O@@OO@oO...#@o@.OOO+=++O@#O.++..@@.OO@o##oo+@@O.+=oOOo+@.Oo@OOO@",
"o@OOOO@#.+OO##O.OO@o+OOOOO.@O#.+OOO@+OoOOO@o+o@@+@-O.@o@.O@OO@+O",
"+oo+@O.@ @OOo+@.O@O+oO..OO#OOO.+..O+o@@#.@@OO@+oo###oO@OOOOOO+o+",
"++++@.O++++++o@@@OO@@@..OO.OO+..#@@O+OOO.OOOOOO@Ooo+=+oo+@OOOO##",
"++++@ =++o+#oo@O.@OOoo@O.O.+.+.O@oo@O#.O@O.O@@OOOo-+Oo+-oO@OO++o",
"##oOO+#-+@O+++OOOO@O#@+@O.#.ooO@+O@@.OOO@O.OOO@@o--+.o==oo+@O++o",
"-+oOOo#oo.Oo=oOOoO.O..+=..O#oo.++OOO@O.OO#.#O.O@+o#o+=o--+o+OO+o",
"o#+=oo+#-oo++o+-+XXXXXXXXXXXXXXXXXXXXXXXXXX.OO.O@.O+#+oo++++oO=+",
"#oo##o+@@==oo++O@XXXXXXXXXXXXXXXXXXXXXXXXXXO#O@+o+o##oo++o+-++o#",
"++o++#o+@#=@o++XX,,,<<<<<<<<<<,,,<<<<<<<<,,XXX+++##oo#++o+#+@++o",
"++o+##o+@=@=+++XX,,,<<<<<<<<<<,,,<<<<<<<<,,XXX++#+ooo-#+O@o-O+oO",
"O++oo#@==O=@=o+XX,,,<<<<<<<<<<,,,<<<<<<<<,,XXXo+#++-#o#ooOo+###O",
"oo@O++@=Oo+=XXX,,<<<<<<<<<<<<<<<<,,<<<<<<<<,,,XXo+o-+o@o##o+o+++",
"+@OO##++++o@XXX,,<<<<<<<<<<<<<<<<,,<<<<<<<<,,,XXo+#o+oO+##o@O+++",
"OO@Oo#oo+-+OXXX,,<<<<<<<<<<<<<<<<,,XXXXXX<<<<<,,XXXO@@Ooo+=.@o++",
"Oo+O@O@Ooo@=XXX,,<<<<<<<<<<<<<<<<,,XXXXXX<<<<<,,XXX.OO@@+-ooO+oo",
"++=OOOO@o-=@XXX,,<<<<<<<<<<<<<<<<,,XXXXXX<<<<<,,XXX@OOO..##++++=",
"@#o+O@O@+@@=XXX,,<<<<<<<<<<<<<<<<,,111111XX<<<,,XXX+=O#.Oo##++o+",
"O@O=.OOOo@O#XXX,,<<<<<<<<<<<<<<<<,,111111XX<<<,,XXX#o+OO@@+o++++",
"O==++.O@+-==XXX$$<<<<<<<<<<<<<<<<$$&&&111XX<<<,,XXX#+++OOO #=Oo=",
"==o++@OOo+@oXXX$$<<<<<<<<<<<<<<<<$$&&&111XX<<<,,XXX@@+o@@.@#+==O",
"#@+oo+o@OOo#XXX$$<<<<<<<<<<<<<<<<$$&&&111XX<<<,,XXX--+ooOO+oo#=#",
"=@=++o=+O@O++-oXX,,,,,XXXXXX,,,,,<<<<<<<<<<<<<,,XXXoo#+@@O@@.oO#",
"=@O=+o++OOOOo+oXX,,,,,XXXXXX,,,,,<<<<<<<<<<<<<,,XXXO+ooO.@@..O-O",
"@=@=@-+o@.OOOOOXX111XX222XXX11,,,<<<<<<<<<<<<<,,XXXO@++OOOO#.+#O",
"+o@OO@@+OOO.OO.XX111XX222XXX11,,,<<<<<<<<<<<<<,,XXXOo+++OO@.OO++",
"O++#+O=#O.@@OO.XX111;;22211111&&&,,<<<<<<<<<<<,,XXXo-o++=+o@.+.O",
".@++#@O+o@O@@.OXX111;;22211111&&&,,<<<<<<<<<<<,,XXX=@-o+o++@.o.#",
"OOOo+@++=OOOO@OXX111;;22211111&&&,,<<<<<<<<<<<,,XXX=O@o+OOO@OOO#",
"O.O@o+-O+o+OOOOXX111**22211111&&&,,<<<<<<<<,,,XX.#OO@##+@.O@oOOO",
"@O@o+oO=O+o-oOOXX111**22211111&&&,,<<<<<<<<,,,XX+++-O@O+.OO@@@#O",
"O=+o@@+-#-@@+OOO.XXX1111111111&&&&&,,,,,,,,XXX@o++o+=@@+o@OOOO..",
"O++oOO..o+-@#+.OOXXX1111111111&&&&&,,,,,,,,XXXoo+++o==@+++o+OO#.",
"@++@O.o.OOo+O+OOOXXX1111111111&&&&&,,,,,,,,XXX++o+++o+++@==+o+@O",
"Ooo+O.OOOOo+=#OO.@.@XXXXXXXXXXXXXXXXXXXXXXXXXX+o+o+++Oo+O@=@++oO",
"@@O@++@O@O+=@+O.@@@OXXXXXXXXXXXXXXXXXXXXXXXXXX+++#+o+@.@@==Oo+@O",
"OOOO@++oOO=+++O@o+..XX111;;;%%;;;;;;;;;;;;;***XX+o+O@OOoo=@@++oO",
"+OO..O@@OOOoo++o#@.oXX111;;;%%;;;;;;;;;;;;;***XXO@OOOOO+-+@@O+o@",
"+@OOOOOo@.@@Oo+-o@.OXX111;;;%%;;;;;;;;;;;;;***XXOOO@OO@o+o+==+o+",
"O@O@O.O@@OOO@O+#oXXX;;;;;;;;XX;;;;;XXX;;;;;***XX.O@O@o++o++@o#++",
"O.@OOO#O.O.O@O.O-XXX;;;;;;;;XX;;;;;XXX;;;;;***XXO.OO+++o++o+#o#o",
"o@OO@OO.+oOO+@.OoXXX;;;;;;;;XX11111XXX;;;**XXXXX..O@O@OO@O@o+#+-",
"+.O@O@.+oo.@@O@OoXXX;;;;;;;;XX11111XXX;;;**XXXXX.OOOOO.O@O.@+o-=",
"++.OO@OO.+o.@oo+oXXX>>XXXXXXXX11111XXXXXXXX,,,XX.@@O.+.OO@@OOOo@",
"#+@OOOOOO+o.O+-@=XXX>>XXXXXXXX11111XXXXXXXX,,,XXO+OOo.#OO++OOO+#",
"o#O..#O+ooo+Ooo=OXXX>>XXXXXXXX11111XXXXXXXX,,,XX=+@.O.O#O@O@OOOO",
"O@@.o..ooooOOo@==XXX::<<<<<<<<XXXXX<<<<<<<<,,,XX#o++OO.O.O@.O..O",
".O#O+o+o+oOOo-O@oXXX::<<<<<<<<XXXXX<<<<<<<<,,,XX++o+-@.+OO.Oo++o",
"+.O.#.oooOOO#==-OXXXXX,,,<<<<<<<<<<<<<<<<,,XXXXX+oo#+=..O@O+oooo",
"o..@#OoooOOO+==o.XXXXX,,,<<<<<<<<<<<<<<<<,,XXXXX+++@O@@OOOOO.ooo",
"o+#OO.+.+OO.o#o@OXXXXX,,,<<<<<<<<<<<<<<<<,,XXXXXO#+...o-+OO@O#.o",
".oooooOOO..@+@.XXXXXXXXXXXXXXXXXXXXXXXXXXXXXXXXXXXX..Oo#-o@+=oOO",
"O+ oo.O@OOO@@..XXXXXXXXXXXXXXXXXXXXXXXXXXXXXXXXXXXX+@O@++ooo++#@",
".oo o#@@O@@O.OOXXXXXXXXXX11111111&&XXX&&&XXXXXXXXXX-+O.O.=++#==o",
"..+o.OOOOO@OOO+XXXXXXXXXX11111111&&XXX&&&XXXXXXXXXX+@oO.@+=@o+-o",
"@#.O#O.+=oOO+#oXXXXXXXXXX11111111&&XXX&&&XXXXXXXXXX@=@#oO++-+oo+",
"OOO.OO++#+OO++-XXXXXXXXXXXXXXXXXXXXXXXXXXXXXXXXXXXX+===#o+oo-o+@",
"..O..@=++O.OO+oXXXXXXXXXXXXXXXXXXXXXXXXXXXXXXXXXXXXooO==o=+#o-+O"
};
