/* XPM */
static char *_ae62b147d1b401a895efe94ac8ce9a2rs4VP5C9p9SOadUQ[] = {
/* columns rows colors chars-per-pixel */
"64 64 103 2 ",
"   c #062600",
".  c #0D3502",
"X  c #4B3E36",
"o  c #4D3D39",
"O  c #55373E",
"+  c #533D3C",
"@  c #14430A",
"#  c #1C5211",
"$  c #236014",
"%  c #266E1C",
"&  c #2E7923",
"*  c #4E4037",
"=  c #4E4139",
"-  c #53453D",
";  c #58413D",
":  c #55483F",
">  c #554640",
",  c #594543",
"<  c #564942",
"1  c #594B44",
"2  c #5D4F48",
"3  c #5E5149",
"4  c #62544C",
"5  c #665561",
"6  c #6A5D64",
"7  c #715F68",
"8  c #6C6565",
"9  c #6E6668",
"0  c #6F6869",
"q  c #706466",
"w  c #716469",
"e  c #716A6C",
"r  c #847E7E",
"t  c #35872A",
"y  c #3C9631",
"u  c #25A13E",
"i  c #28A23F",
"p  c #2AA83F",
"a  c #27B03F",
"s  c #17935F",
"d  c #1B945F",
"f  c #27A240",
"g  c #2DA543",
"h  c #2CAB42",
"j  c #31A645",
"k  c #36AA46",
"l  c #38AC45",
"z  c #35A948",
"x  c #2EB546",
"c  c #30B047",
"v  c #32B249",
"b  c #0A876F",
"n  c #0B886E",
"m  c #199361",
"M  c #189860",
"N  c #8C7D85",
"B  c #878080",
"V  c #8B8484",
"C  c #8E8788",
"Z  c #8F8889",
"A  c #93848B",
"S  c #928B8C",
"D  c #979090",
"F  c #9B9393",
"G  c #BBAEB1",
"H  c #BDB3B3",
"J  c #C1B5B6",
"K  c #C2B5B9",
"L  c #C6B4BA",
"P  c #C7B7BC",
"I  c #CAB6BF",
"U  c #C2B8B9",
"Y  c #C2B9B9",
"T  c #C4BABA",
"R  c #C5BBBC",
"E  c #C7BDBD",
"W  c #C9BFBF",
"Q  c #9FDF8B",
"!  c #9FE18A",
"~  c #9FE78A",
"^  c #A3E28D",
"/  c #A5E28E",
"(  c #A1E78C",
")  c #A6E48F",
"_  c #A3E98D",
"`  c #A3EA8E",
"'  c #A7E490",
"]  c #ABE693",
"[  c #ADE793",
"{  c #A5EB90",
"}  c #A4EC90",
"|  c #A9EB91",
" . c #ADE994",
".. c #B0E795",
"X. c #B0E895",
"o. c #CCB9C1",
"O. c #C9BFC1",
"+. c #C9C0C1",
"@. c #CDC3C3",
"#. c #CEC3C4",
"$. c #CEC4C4",
"%. c #D5C9C9",
"&. c #D9CECE",
/* pixels */
". @ $ & # # $ @ @ # # $ . # & y % $ # # # # @ # # # # & . . # # # # . $ . & # $ % # t % t # @ . # $ y & & @ t # & $ @ y & # # # ",
"# # . . % # # $ $ % . # . % $ $ @ y @ $ # % & & @ # # . . # % # % # & $ . . . $ y # % t t & % %   @ @ $ $ % y @ @ & @ $ # . $ # ",
"& % % $ # # # # t @ % % & # . . $ $ # y @ @ @ y $ # . % % & E H H H H J @ # # $ & # $ % @ @ @ @ y t # # @ $ $ $ $ & $ @ % . @ . ",
". @ t $ % # # # % $ $ # . . $ # # $ # t S S S C T J < 1 1 1 C V V V V V Y E 1 1 1 4 y # # % $ & y @ @ t $ $ @ @ y $ $ $ # # @ . ",
"& # $ @ # # . . . # @ $ # . . # # % @ t C V V B H H - 1 1 > C V V V V V H H < 1 : 1 @ . # # $ @ @ % y @ $ @ & $ $ @ & @ % # # . ",
"# @ % # # % # & $ . % y & % &.$.1 3 F S V V V B H H - 1 1 > C V V V V V H H < : S Z S S +.@.2 4 & t & @ % $ y @ # % $ $ # # # % ",
"# % % # # % @ # . . . & % @ @.Y X - S Z C C V B J H X - 1 > C V V V V V Y E < : Z V V V H H < 3 $ t @ # # @ $ % . # @ % # # # % ",
"@ % # # # # % & . $ 4 1 F S B r R Y - - 8 8 C V B B T R < > C V V V V C = - 1 : Z V V V H H < 1 3 1 F F . % @ % . # % # # % $ # ",
"$ @ @ $ % # . %   % 1 > Z V V V H H < < 8 8 C V V V H H < > C V V V V C < 1 < - Z V V V H H < 1 < - Z S @ # % # # # # # # $ @ $ ",
"$ $ $ $ % . # $ 4 2 1 < 8 8 C V V V < 1 < : 9 8 C V H H < < 8 8 8 8 8 8 < < Z C V B J H = - 1 < Z C V B T T @ @ $ % # # # # & & ",
"$ $ $ $ %   t $ 1 > 1 < 0 8 C C V C - > 1 < e 8 C C J K > , w 9 9 9 9 9 < > C V V r Y H - < < - C V V V H H $ y @ # % # # $ $ @ ",
"& & @ # # $ D C H J < 1 1 < 0 8 C V H Y < 1 1 < 0 8 j z z z z z z z z z 9 8 V B H Y = < Z V C C V V V V H H < 2 @ @ $ % # $ $ @ ",
"y $ @ # # @ S V H J - > - = e 8 C V H Y , , , , 6 6 h g g g g g g g g g 6 6 A N L o.= 1 S C V V V V V r T Y - 1 y $ @ $ # # $ @ ",
"@ & $ t 4 1 Z V V V Z V Y O.= : Z V V N k k k h | ( / / / / / / / / / / ( { h j h h , 1 8 8 C V H H H T X - S C E %.$ $ @ # t $ ",
"& @ @ & 3 : S C C C V V H Y + , A A N N g g g u X./ / / / / / / / / / / / [ g g g h O + w 7 V r R Y Y +.X - C V H @.$ y $ $ @ & ",
"$ $ @ $ 3 < 8 8 8 8 V V H L a v h h _ ~ / / / X.u g g g g g g g g g g g g u ] / / / } { h h J T X - = X S Z V V B r @.&.% $ $ @ ",
"$ $ @ $ 3 < e 9 9 8 C V Y I p z j g ) ^ ^ ^ ^ ] g z z z z z z z z z z z z j / ^ ^ ^ ^ / g g K P - , < : Z V V V V V Y #.# $ @ # ",
"# $ 4 3 1 1 < < < > 8 8 - + v j [ / g g g g g j m m m m m m m m m m m m m m g g g g g g ] ] h h k x w 8 C V V V V Z = 1 & & & # ",
"@ @ 1 1 1 1 < < < > 9 0 > , c g ' ^ j z z z z l m m m m m m m m m m m m m m z z z z z z ' ^ j z z h w 8 C V V V C S > 3 @ $ $ $ ",
"$ % 1 1 1 : S C H J < - } ( ^ ) g j m m m m m m l z z z z z z z z z z z z z m m m m m m z g ^ ^ ^ _ 6 8 C V V C < < 1 3 # $ $ $ ",
"# # 1 1 < - Z V H J - o | ^ ^ ] g z m d m m m m j j j j j j j j j j j j j j m m m m d d z z / ^ ^ | 5 6 Z C C S < 1 < 2 % @ $ $ ",
"# @ 1 < 0 8 C V V V H L h z z z m d d m z z z g ' Q Q Q Q Q Q Q Q Q Q Q Q / z z z z m d d m z z z g ) _ 6 8 < 1 1 : Z B J Y @ @ ",
"$ $ 1 < 0 8 S C V V H L h z z l m d m m g g g u X./ / / / / / / / / / / / [ g g g g m m d m k z z g X.| 6 0 - : : - Z B H J $ t ",
"% & 1 < 0 8 8 8 C V B N z z m m d m l j ' / /  .u g g g g g g g g g g g g u ' / / [ g z m d m m z z g h , < S Z Z Z V B H J @ $ ",
"# % < - e 0 0 0 S Z Z A k l m m m m g f ' / / [ g z z z z z z z z z z z z j ' / /  .u g m m m m l z z k , < C V V V V r E W $ $ ",
"S S Z S - < < < : : : ; M m l z z z ] [ g g g g z z m m m m m m m m m m z z g g g u  ./ j z z l m m z j w 0 C V V V V S X - @ t ",
"V V V Z - < 1 1 1 1 1 , M m z z z j ^ / z z z z z z m d d d d d d d d d z z z z z g ' ^ g z z z m m z j w 8 C V V V V S - 1 t # ",
"8 8 C V C S : 1 1 1 M M d m z j ] / g j z z m m m m d d d d d d d d d d m m m m z z j g ] ) z z m d m m k j 9 8 < < < * E H Y Y ",
"8 8 C C V Z - < < : d d m m z g ] / z z z l m d d d m m m m m m m m m m d d d m l z z z ] / g z m m d m k z w 0 < < < = T H H H ",
"1 < 8 8 C V H H H J d m k g ] / g z m d d d d d d d z z z z z z z z z z m d d d d d d d z j ^ / j k m d d d , < C V C C V V H H ",
"1 < 0 8 Z V J H G J m m j u [ ] g z m d d d d d m m g g g g g g g g g g m m d d d d d d z j ) [ g j m m d d , : V V V V V V T J ",
"1 1 < : 8 8 V B H H z g ] [ u g z z m d d d d m l z ] / / / / / / / / / z z d d d d d d z z g g ] [ g k m d w 8 V V V V V C = - ",
"1 1 1 < e 8 S Z T R z g / / g z z k m d d d m m g g [ / / / / / / / / ] g g m m d d d d l z z g ^ / g z m d q 8 V V V V Z S < 1 ",
"1 1 1 1 < < : : - + z g / / g z m m d d d m l g  .] u g g g g g g g g g ] [ z l m d d d m m z g ^ / g z m d q 8 V V V Z = : 1 1 ",
"< < < < < < - - 1 , g u [ [ g z m d d d m m j u [ / j z z z z z z z z z ] ] g j m s d d d m z g ] [ u j m m w 8 C C C S X - - - ",
"0 8 Z Z Z V T Y : > ) [ u g z z m d d m z g [ [ u g z z m m m m m m z z g g ' [ g l m d d m z z g u [ [ g z > < > > > X +.J J J ",
"8 8 C V V V H H - - ! / g z z z m d d m z g ] ] g z z z d d d d d m z z z j ^ ] g z m d d m z z z g / / g z , 1 < < < = Y H H H ",
"< : C V V V V V J H ! / g z m m d m z j ^ ] g j z z m m n n d d n n d m z z j g ] ] g z m d m m z g / / g z w 8 C C C C V B H H ",
"1 < C C V V V V H G ! / g z m d d m z j Q / g z z z d d n b d d n b d d z z z g / / g z m d d m z g / / g z 9 8 V V V V V V H H ",
"1 < 8 8 C V V V H G ! / g z m d d m z j Q / g z m d n n d m z z m d n n d m z g / / g z m d d m z g / / g z 9 8 V V V V V V H H ",
"1 < 8 8 S Z C C T Y ! / g z m d d m z j Q / g z m d b n m m g g m m b n d m z g / / g z m d d m z g / / g z w 9 C C C C Z C T Y ",
"1 < 8 0 - - 8 8 = o ! / g z m d d m z j Q / g z m d d d z j [ [ g l m d d m z g / / g z m d d m z g / / g z > < 8 8 8 8 - - = - ",
"1 < e e < < e 0 < > ! / g z m d d m z j Q / g z m d d d z j [ ..g l m d d m z g / / g z m d d m z g / / g z - - 0 0 0 e X - - - ",
"1 1 < < 1 1 < < 1 > ! / g z m d d m z j Q / g z m d b n m m g g m m b n d m z g / / g z m d d m z g / / g z S S < < < * +.Y Y Y ",
"1 1 1 1 < < < < 1 > ! / g z m d d m z j Q / g z m d n n d m z z m d n n d m z g / / g z m d d m z g / / g z V C < 1 1 - Y H H H ",
"C C C V Y H H J : > ! / g z m d d m z j Q / g z z z d d n b d d b b d d z z z g / / g z m d d m z g / / g z V V C C C C V B H H ",
"C C V B J H H H - - ! / g z m m d m z j ^ ] g j z z m m n n d d n n d m z z j g ] ] g z m d m m z g / / g z C C C C V V C V J H ",
"8 8 C V V V V V H H ! / g z z z m d m m z g ] ] g z z z d d d d d m k z z j ^ ] g z m m d m z z z g / / g z 9 8 8 8 C Z - < < < ",
"8 8 C C V V Z C Y Y / [ u g z z m d d m z g [ [ u g z z m m m m m m z z g g / [ g l m d d m z z g u [ [ g z w 0 0 8 S S : 1 - - ",
"8 8 8 8 C Z - < - - g i ] [ g z m d d d m m j u [ / j z z z z z z z z z ) ] g j m m d d d m z g ] [ u j m m , < < < < < 1 > T H ",
"0 0 8 8 S S : 1 1 , z g / / g z m m d d d m l g  .] u g g g g g g g g g ] [ z l m d d d m m z g ^ / g z m d - : : : - = 1 > W Y ",
"< : 8 0 - - 1 1 1 , z g / / g z z k m d d d m m g g [ / / / / / / / / ] g g m m d d d d l z z g ^ / g z m d S Z Z C E +.= 1 = - ",
"< < 0 e < 1 - - - - z g [ [ u g z z m d d d d m l z ] / / / / / / / / ) z k d d d d d d z z g u ] [ g k m d V V V V J E X - 1 1 ",
"1 1 < < 1 - O.Y Y T m m g u ..] g z m d d d d d m m g g g g g g g g g g m m d d d d d d z j ] [ g g m m d d V V V V B r E R - 1 ",
"1 1 < < < - Y H H J d m z g ] / g z m d d d d d d d z z z z z z z z z z m d d d d d d d z j ^ / j z m d d d V V V V V B H H - < ",
"1 < Z C C C V V H J d d m m j g ] / z z z l m d d d m m m m m m m m m m d d d m l z z z ] / g z m m d m k z 9 8 V V V V V B Y H ",
"1 < C V V V V V H J s m d m z j ] / g j z z m m m m d d d d d d d d d d m m m m z z j g ] / z z m d m m j g w 8 C C V V C V Y H ",
"1 < C V V V V V V V z z m m z z z j ^ / z z z z z z m d d d d d d d d d z z z z z g ' ^ g z z z m m z g ' ^ > < 8 8 C Z - < < < ",
"1 < S Z Z Z Z Z Z A z z m m l z z z ] ] g g g g z z m m m m m m m m m m z z g g g u  ./ j z z l m m z g / ! > < 0 8 S S X - - - ",
"1 1 : > > > > > > - z z z l m m m m g g ' / / [ g z z z z z z z z z z z z j ' / / [ u g m m m m l z z g / ! > 1 < < : X +.J J J ",
": : : : : : - - 1 , g g z z m m d m l j ' / / X.u g g g g g g g g g g g g u ] / /  .g z m d m m z z g u  .] - < : : : X E H H H ",
"Z Z Z Z Z C E Y : > ]  .g z z l m d m m g g g u X./ / / / / / / / / / / / [ g g g g m m d m k z z g X.[ u g w 9 Z Z Z S B r H H ",
"C C C C V B H H : > ^ ] g j j z m m d m z z z g ] ^ ^ ^ ^ ^ ^ ^ ^ ^ ^ ^ ^ ' z z z l m d m m j j j f [ ] g z w 8 C C V V V V Y H ",
"8 8 8 8 C V B V < , g u [ / / ] g k m d m m m m j g g g g g g g g g g g g j m m m m d d k z / / / [ u j m m , < 8 8 C V V C = - "
};
