/* XPM */
static char *_7c3106cdfc444189067f5898796f54biuTZTzAGDze3fQyf[] = {
/* columns rows colors chars-per-pixel */
"64 64 83 1 ",
"  c #062600",
". c #0D3502",
"X c #26232F",
"o c #4B3E36",
"O c #4D3D39",
"+ c #55373E",
"@ c #533D3C",
"# c #14430A",
"$ c #1C5211",
"% c #236014",
"& c #266E1C",
"* c #2E7923",
"= c #4E4037",
"- c #4E4139",
"; c #53453D",
": c #58413D",
"> c #55483F",
", c #1B377F",
"< c #554640",
"1 c #594543",
"2 c #564942",
"3 c #594B44",
"4 c #5D4F48",
"5 c #5E5149",
"6 c #62544C",
"7 c #665561",
"8 c #6A5D64",
"9 c #715F68",
"0 c #6C6565",
"q c #6E6668",
"w c #6F6869",
"e c #706466",
"r c #716469",
"t c #716A6C",
"y c #A66E46",
"u c #A75D69",
"i c #847E7E",
"p c #008B12",
"a c #35872A",
"s c #3C9631",
"d c #3EF33F",
"f c #D89511",
"g c #EAD11E",
"h c #147ABF",
"j c #8C7D85",
"k c #40AFDD",
"l c #878080",
"z c #8B8484",
"x c #8E8788",
"c c #8F8889",
"v c #93848B",
"b c #928B8C",
"n c #979090",
"m c #9B9393",
"M c #BBAEB1",
"N c #BCB2B2",
"B c #BDB3B3",
"V c #BDB3B4",
"C c #BEB4B4",
"Z c #EC9EA4",
"A c #C1B2B6",
"S c #C4B0B7",
"D c #C0B6B6",
"F c #C2B3B8",
"G c #C5B0B9",
"H c #C1B7B8",
"J c #C7B4BB",
"K c #C7B7BC",
"L c #CAB6BF",
"P c #C2B9B9",
"I c #C5BABA",
"U c #C5BBBC",
"Y c #C7BDBD",
"T c #C9BFBF",
"R c #CCB9C1",
"E c #C9BFC1",
"W c #C9C0C1",
"Q c #CDC3C3",
"! c #CEC3C4",
"~ c #CEC4C4",
"^ c #D5C9C9",
"/ c #D9CECE",
"( c gray99",
/* pixels */
".#%*$$%##$$%.$*s&%$$$$#$$$$*..$$$$.%.*$%&$a&a$#.$%s**#a$*%#s*$$$",
"$$..&$$%%&.$.&%%#s#%$&**#$$..$&$&$*%...%s$&aa*&& ##%%&s##*#%$.%$",
"*&&%$$$$a#&&*$..%%$s###s%$.&&*YBBBBD#$$%*$%&####sa$$#%%%%*%#&.#.",
".#a%&$$$&%%$..%$$%$abbbxID2333xzzzzzPY3336s$$&%*s##a%%##s%%%$$#.",
"*$%#$$...$#%$..$$&#axzzlBB;33<xzzzzzBC23>3#.$$%##&s#%#*%%#*#&$$.",
"$#&$$&$*%.&s*&/~35mbzzzlBB;33<xzzzzzBC2>bcbbWQ46*a*#&%s#$&%%$$$&",
"$&&$$&#$...*&#QPo;bcxxzlDCo;3<xzzzzzPY2>czzzBB25%a#$$#%&.$#&$$$&",
"#&$$$$&*.%63mbliUP;;00xzllIU2<xzzzzx-;3>czzzBB2353mm.&#&.$&$$&%$",
"%##%&$.& &3<czzzCB2200xzzzBV2<xzzzzx232;czzzBC232;cb#$&$$$$$$%#%",
"%%%%&.$%643200xzzz232>q0xzBV2200000022cxzlDB->32cxzlII##%&$$$$**",
"%%%%& a%3<32w0xxzx;<32t0xxAF<1rqqqqq2<xzziPC;22;xzzzBB%s#$&$$%%#",
"**#$$%nxCD2332w0xzBH2332w0*.##$&%$&&q0zlCP-2czxxzzzzBB24##%&$%%#",
"s%#$$#bzCD;<;-t0xzCP111188$*##.%%$$$88vjJR-3bxzzzzziIP;3s%#%$$%#",
"#*%a63czzzczPE->czzjXXXXXXXXXXXXXXXXXXXXXX1300xzCBBIo;bxY^%%#$a%",
"*##*5>bxxxzzBP@1vvjjXXXXXXXXXXXXXXXXXXXXXX+@r9ziUPPWo;xzCQ%s%%#*",
"%%#%520000zzBG%%a&XXkkkkhhhkkkkkkkkhhhkkkkXX.&DIo;-obczzliQ/&%%#",
"%%#%52tqq0xzPL%%%$XXkkkkhhhkkkkkkkkhhhkkkkXX#$SK;12>czzzzzP!$%#$",
"$%6533222200;@%%%%XXkkkkhhhkkkkkkkkhhhkkkkXX%%#%*%r0xzzzzc-3***$",
"##3333222<qw<1#XXXhhkkhhkkkkkkkkkkkkkkhhkkhhXXX%#%r0xzzzxb<5#%%%",
"%&333>bxCD2;aa&XXXhhkkhhkkkkkkkkkkkkkkhhkkhhXXX##%80xzzx2235$%%%",
"$$332;czCD;O$$aXXXXXkkhhkkkkkkkkkkkkkkhhkkXXXXX&#%78cxxb2324&#%%",
"$#32w0xzzzBGa.aXXXXXkkhhkkkkkkkkkkkkkkhhkkXXXXXaa* .80233>clDP##",
"%%32w0bxzzCJ$&&XXXXXkkhhkkkkkkkkkkkkkkhhkkXXXXX&*&#&8w;>>;clCD%a",
"&*32w000xzljaXXZZZZZkkhhkkkkkkkkkkkkkkhhkkZZZZZXXa%%12bccczlCD#%",
"$&2;twwwbccv&XXZZZZZkkhhkkkkkkkkkkkkkkhhkkZZZZZXX&$*12xzzzziYT%%",
"bbcb;222>>>:aXXZZZuukk,,kkkkkkkkkkkkkk,,kkuuZZZXX%$*rwxzzzzbo;#a",
"zzzc;2333331#XXZZZuukk,,kkkkkkkkkkkkkk,,kkuuZZZXXa*&r0xzzzzb;3a$",
"00xzxb>333#**#aXXXkkhhXXXXXhhhhhhhhXXXXXhhkkXXX%###ss%q0222=YCPP",
"00xxzc;22>$%%s#XXXkkhhXXXXXhhhhhhhhXXXXXhhkkXXX%***##*rw222-IBBB",
"3200xzCBBA$$#%#XXXkkhhXXXXXhhhhhhhhXXXXXhhkkXXX%#%%$%#12xzxxzzBB",
"32w0czDBBA$$$$$XXXkkhhXX(((XXZZZZXX(((XXhhkkXXX###$$&%1>zzzzzzID",
"332>00zlBV$.$$.XXXkkhhXX(((XXZZZZXX(((XXhhkkXXX%*%&$#%r0zzzzzx-;",
"3332t0bcIU&&$$.XXXkkkkZZ(((ddZZZZdd(((ZZkkkkXXX*%*##s#e0zzzzbb23",
"333322>>;@$&&.$XXXkkkkZZ(((ddZZZZdd(((ZZkkkkXXX#%%%a&se0zzzc->33",
"222222;;31$$$&$XXXkkkkZZ(((ddZZZZdd(((ZZkkkkXXX.$%&a$&r0xxxbo;;;",
"w0ccczIP><%$$$$$$$XXkkZZ(((ppZZZZpp(((ZZkkXX%%&$.*$$&*<2<<<oWDDD",
"00xzzzCB;;#s#$$$$&XXkkZZ(((ppZZZZpp(((ZZkkXX*#%$%%%s$&13222-PBBB",
"2>xzzzzzDV&&%$$$.$XXXXZZZZZZZZZZZZZZZZZZXXXX%%&#%%#%a&r0xxxxzlBB",
"32xxzzzzBMs&*%.$$.XXXXZZZZZZZZZZZZZZZZZZXXXX%%##%%%#aaq0zzzzzzBB",
"3200xzzzBM#%$%$XXXppppXXXXXXXXXXXXXXXXXXppppXXX%#%%%#%q0zzzzzzBB",
"3200bcxxIH#%a*$XXXppppXXXXXXXXXXXXXXXXXXppppXXX#%#%%%$rqxxxxcxIP",
"320w;;00-O%a&%$XXXppppXXXXXXXXXXXXXXXXXXppppXXX%%*%#%&<20000;;-;",
"32tt22tw2<a%%XXZZZZZppddyyyddZZZZddyyyddppZZZZZXX#%$&$;;wwwt-;;;",
"332233223<$##XXZZZZZppddyyyddZZZZddyyyddppZZZZZXX&$$$$bb222=WPPP",
"333322223<&XXZZZZZXXppddyyyddddddddyyyddppXXZZZZZXX&$$zx233;PBBB",
"xxxzPCCD><$XXZZZZZXXppddyyyddddddddyyyddppXXZZZZZXX$&#zzxxxxzlBB",
"xxzlDBBB;;.XXZZZZZXXppddyyyddddddddyyyddppXXZZZZZXX$%%xxxxzzxzDB",
"00xzzzzzCV$XXZZZZZXXXXddyyyddddddddyyyddXXXXZZZZZXX&$&q000xc;222",
"00xxzzcxPH.XXZZZZZXXXXddyyyddddddddyyyddXXXXZZZZZXX$$$rww0bb>3;;",
"0000xc;2;;#.&XXXXXXXhhXXXXXXXggggXXXXXXXhhXXXXXXX&&$.%1222223<IC",
"ww00bb>331#.$XXXXXXXhhXXXXXXXggggXXXXXXXhhXXXXXXX%$$#.;>>>;-3<TP",
"2>0w;;3331#%$XXXXXXXhhXXXXXXXggggXXXXXXXhhXXXXXXX%&.$.bccxYW-3-;",
"22wt23;;;;#$$#&aa#XXhhkkkkkkkffffkkkkkkkhhXX*.%s*#%%$$zzzzDYo;33",
"33223;EHHI$$#s$&#$XXhhkkkkkkkffffkkkkkkkhhXX&#%%%%#%s&zzzzliYU;3",
"33222;PBBA$$*aas$$XXXXhhkkkkkkkkkkkkkkhhXXXX%*s#%##*%azzzzzlCC;2",
"32cxxxzzBA$$%aa#.$XXXXhhkkkkkkkkkkkkkkhhXXXX%a#*%%%&$&q0zzzzzlHC",
"32xzzzzzCA$.#*#XXXZZZZXXXXXXXXXXXXXXXXXXZZZZXXX%$*%...r0xxzzxzHC",
"32xzzzzzzz.&%&.XXXZZZZXXXXXXXXXXXXXXXXXXZZZZXXX**s#..$<200xc;222",
"32bccccccv$&&..XXXZZZZXXXXXXXXXXXXXXXXXXZZZZXXX###%%&$<2w0bbo;;;",
"33><<<<<<;&$.$$XXXZZZZZZuuuXXXXXXXXuuuZZZZZZXXX%%%#s%$<322>oWDDD",
">>>>>>;;31&$$$%XXXZZZZZZuuuXXXXXXXXuuuZZZZZZXXX%%%%%&#;2>>>oYCBB",
"cccccxYP><$$%*#XXXXXXXXXXXXXXXXXXXXXXXXXXXXXXXX&s#%&a&rqcccbliBB",
"xxxxzlCB><$$%%sXXXXXXXXXXXXXXXXXXXXXXXXXXXXXXXXa%%%%aar0xxzzzzHC",
"0000xzlz21.$$%#XXXXXXXXXXXXXXXXXXXXXXXXXXXXXXXX%#sa##$1200xzzx-;"
};
