/* XPM */
static char *b929779d7ee04aeea7442c5a4fa16504Irp5lhyS3XS90pu5[] = {
/* columns rows colors chars-per-pixel */
"64 64 73 1 ",
"  c #062600",
". c #0D3502",
"X c #4B3E36",
"o c #4D3D39",
"O c #55373E",
"+ c #533D3C",
"@ c #14430A",
"# c #1C5211",
"$ c #236014",
"% c #266E1C",
"& c #2E7923",
"* c #4E4037",
"= c #4E4139",
"- c #53453D",
"; c #58413D",
": c #55483F",
"> c #554640",
", c #594543",
"< c #564942",
"1 c #594B44",
"2 c #5D4F48",
"3 c #5E5149",
"4 c #62544C",
"5 c #665561",
"6 c #6A5D64",
"7 c #715F68",
"8 c #6C6565",
"9 c #6E6668",
"0 c #6F6869",
"q c #706466",
"w c #716469",
"e c #716A6C",
"r c #847E7E",
"t c #35872A",
"y c #3C9631",
"u c #8C7D85",
"i c #878080",
"p c #8B8484",
"a c #8E8788",
"s c #8F8889",
"d c #93848B",
"f c #918A8B",
"g c #958E8E",
"h c #979090",
"j c #999292",
"k c #9F9797",
"l c #BBAEB1",
"z c #BBB1B1",
"x c #BDB3B3",
"c c #BDB3B4",
"v c #BEB4B4",
"b c #C1B2B6",
"n c #C4B0B7",
"m c #C0B6B6",
"M c #C2B3B8",
"N c #C5B0B9",
"B c #C1B7B8",
"V c #C7B4BB",
"C c #C7B7BC",
"Z c #CAB6BF",
"A c #C2B9B9",
"S c #C5BABA",
"D c #C5BBBC",
"F c #C7BDBD",
"G c #C9BFBF",
"H c #CCB9C1",
"J c #C9BFC1",
"K c #C9C0C1",
"L c #CDC3C3",
"P c #CEC3C4",
"I c #CEC4C4",
"U c #D5C9C9",
"Y c #D9CECE",
/* pixels */
".@$&##$@@##$.#&y%$####@####&..####.$.&#$%#t%t#@.#$y&&@t#&$@y&###",
"##..%##$$%.#.%$$@y@$#%&&@##..#%#%#&$...$y#%tt&%% @@$$%y@@&@$#.$#",
"&%%$####t@%%&#..$$#y@@@y$#.%%&Fxxxxm@##$&#$%@@@@yt##@$$$$&$@%.@.",
".@t$%###%$$#..$##$#tfffaSm<111apppppAF1114y##%$&y@@t$$@@y$$$##@.",
"&#$@##...#@$#..##%@tappixz-11>apppppxv<1:1@.##$@@%y@$@&$$@&@%##.",
"#@%##%#&$.%y&%YI13jgpppixz-11>apppppxv<:gsggKL24&t&@%$y@#%$$###%",
"#%%##%@#...&%@LAX-fsaapimvX-1>apppppAF<:spppxx<3$t@##@$%.#@%###%",
"@%####%&.$41jgirDA--88apiiSD<>appppa=-1:spppxx<131jk.%@%.#%##%$#",
"$@@$%#.% %1>spppvx<<88apppxc<>appppa<1<-spppxv<1<-sg@#%######$@$",
"$$$$%.#$421<88appp<1<:98apxc<<888888<<sapimx=:1<sapiSS@@$%####&&",
"$$$$% t$1>1<08aapa->1<e8aabM>,w99999<>apprAv-<<-apppxx$y@#%##$$@",
"&&@##$havm<11<08apxB<11<08&.@@#%$#%%98pivA=<spaappppxz<2@@$%#$$@",
"y$@##@gpvm->-=e8apvA,,,,66#&@@.$$###66duVH=1fappppprSA-1y$@$##$@",
"@&$t41spppspAJ=:sppu#.%$%.&.$.%$$##.&###..,188apvxxSX-faFU$$@#t$",
"&@@&3:faaappxA+,dduu###@%#...%t$%.$.##&.$#O+w7prDAAKX-apvL$y$$@&",
"$$@$3<8888ppxN$$t%t$.###%%####t@%##.#&...#$@.%mSX-=XgsppirLY%$$@",
"$$@$3<e998apAZ$$$#y@$$%..#%.#.%$%####.##.#yy@#nC-,<:spppppAP#$@#",
"#$4311<<<<88-+$$$$@#y@####%%&##@$@&&%%%%##$%$$@$&$w8apppps=1&&&#",
"@@1111<<<>90>,@$@&&%y@$@%.#&.##%@$y@$@@#%#%$&$@$@$w8apppaf>3@$$$",
"$%111:favm<-tt%@&$#%.%t%@#...$.#&%y@@yt####.@&&@@$68appa<<13#$$$",
"##11<-spvm-o##tt@@$y%%tt&%##@.##&$@yt%@@$###$#t%@$56saaf<1<2%@$$",
"#@1<08apppxNt.t#t%@@ty@t$@%#$.&@$@$&%@&&$$@y&$ttt& .68<11:simA@@",
"$$1<08fappvV#%%ttt%y$@@$$@%##.%$@$@$@&y@#$&@&@@%&%@%60-::-sivm$t",
"%&1<0888apiuty@$@%t&@##$$@$$##@$$#$%#%@%.@&@@##&tt$$,<fssspivm@$",
"#%<-e000fssd%@$$@t@%#%@$$%#$$#$y&@#%..###$&&$$.#@%#&,<apppprFG$$",
"ggsg-<<<:::;t#%&@%..##%%#.#@y@@y$$%.###@&@$$y$##$$#&w0appppfX-@t",
"ppps-<11111,@tt%%@.@.###.##@$y$@$$%..%$$&&@&$$$##t&%w8appppf-1t#",
"88apaf:111@&&@ttty#.&#.&#.#$%#$@$@####t@&@%@y$$$@@@yy$98<<<*FvAA",
"88aaps-<<:#$$y@tt#$t%.%#..#$#y$$#$$$$@$$%..%@$$$&&&@@&w0<<<=Sxzz",
"1<88apvxxb##@$@$%t$$$##%##%t&$$@%@$$$$%###.##@&$@$$#$@,<apaappxz",
"1<08spmxzb#####$#t@$@%###%@@@@$@#%#@$$@.&#&.%$&@@@##%$,:apppppSm",
"11<:88pixc#.##.%$$&@@%%##%%##%$t@@$@$&$%.#.#%$$$&$%#@$w8pppppa=-",
"111<e8fsSD%%##.#$&@y$@##%@@####$&t@y$$@#%####@&&$&@@y@q8ppppff<1",
"1111<<::-+#%%.####$%y@#%#%$$$..#$@$@&y$$.%%$@$$@$$$t%yq8ppps=:11",
"<<<<<<--1,###%#####$t@@@$#@&&$%#@&%$@$&@$#@$&$$.#$%t#%w8aaago---",
"08ssspSA:>$########$t%%&@#$$$$@@&#ty@$@$&@$y$$%#.&##%&><>>>XKmmm",
"88apppvx--@y@####%#$%tt%&$@$@$$&$%$$&$$$&$$$&@$#$$$y#%,1<<<=Azzz",
"<:apppppmc%%$###.##$%%##%&$@$@@$y$$#$$$@$&$$$$%@$$@$t%w8aaaapixz",
"1<aappppxly%&$.##..%$&&$&$&@$&$@@$#.@&t@$@$&$$@@$$$@tt98ppppppxz",
"1<88apppxl@$#$###$..@$$$@$$$y$@#$$$@&$@@%$$$@@$$@$$$@$98ppppppxz",
"1<88fsaaSB@$t&##.%.%$&$@$$&@$&#%#$t&$$$%#@$#%$$@$@$$$#w9aaaasaSA",
"1<80--88=o$t%$#.%%%#%$$@$$#%#@$@@.@$@##&.%%#.%$$$&$@$%><8888-:--",
"1<ee<<e0<>t$$$#%@$...###%##..%&y$$.&#%#...%#####$@$#%#--000e=---",
"11<<11<<1>#@@$$@&%.@.#.###&.##@#ty@#.%#.@#%$##.##%####ff<<<*KAAA",
"1111<<<<1>%%#@$y@%.#&####.%%..#tt&%####&..%%##.####%##pa<11-Azzz",
"aaapAvvm:>##%#$&@$#%.%##.##%&.$&$ ..%%.&&#.%#%##.#%#%@ppaaaapixz",
"aapimzzx--.#%#.#y$t.#&.$@.%$.#$$#&.%$$#.#.#.&#%##.##$$aaaappapmx",
"88apppppvc##$%.#@y@@#.@@@.%%#%###&##$$##&%%#...&..#%#%9888as-<<<",
"88aappsaAB.%%#%#@&yyy#.@$#.#####..#.#%####%#..&#.#####w008fg:1--",
"8888as-<--@.%@@$@@$%$$####.@@$#$@@@&%###%#.#&#.&.%%#.$,<<<<<1>Sv",
"0088fg:11,@.#$y%t$@%$@$%.#$@@@.#@@#..%%.#%.###..#$##@.-:::-=1>GA",
"<:80--111,@$#@@t#y..#$@$%.@@@$###.#&.#%#&%##.###t$%.#.fssaFK=1=-",
"<<0e<1----@##@%tt@#.&#$@%.@@$#.#####%#%...%#&.$y&@$$##ppppmFX-11",
"11<<1-JBBS##@y#%@#%###%$$@#.##..#%%#%#&#.&.#%@$$$$@$y%ppppirFD-1",
"11<<<-Azzb##&tty##%#.#%@yy$#.$###%#.###.#&..$&y@$@@&$tpppppivv-<",
"1<saaappxb##$tt@.#%%###@&$#&$@.%%...@..&%#.#$t@&$$$%#%98pppppiBv",
"1<apppppvb#.@&@%##@$@%%%%##..@.%###$$@$.$$$%%#t$#&$...w8aappapBv",
"1<appppppp.%$%.#@$#$$$.#..&.$$###%##..$.#yt&tt@&&y@..#><88as-<<<",
"1<fssssssd#%%..%&&@@t%.@@###..####&#&#..#$t&&#$@@@$$%#><08fgX---",
"11:>>>>>>-%#.##$$@y%@.@@$.#&##$.@@..%%.&#@$t%%@$$$@y$#>1<<:XKmmm",
"::::::--1,%###$@$#tt%.$@.&#.#.$@ @$##%$#%%@%ttt$$$$$%@-<:::XFvzz",
"sssssaFA:>##$&@$@tt$#.$$.%#%#.$@$.#.#%@$##@y#t#%y@$%t%w9sssfirxz",
"aaaapivx:>##$$y@y$$##..###$%.$.&.&$$##$$@@$@#%tt$$$$ttw8aappppBv",
"8888apip<,.##$@t$@###&#%#.%%#@#%%..@.%$&@yy.ttt$@yt@@#,<88appa=-"
};
