/* XPM */
static char *_b75cc25db1c468e8a3eae83aecac078pueBRP5iF1SVrxcN[] = {
/* columns rows colors chars-per-pixel */
"64 64 21 1 ",
"  c #062600",
". c #0D3502",
"X c #26232F",
"o c #14430A",
"O c #1C5211",
"+ c #236014",
"@ c #266E1C",
"# c #2E7923",
"$ c #1B377F",
"% c #A66E46",
"& c #A75D69",
"* c #008B12",
"= c #35872A",
"- c #3C9631",
"; c #3EF33F",
": c #D89511",
"> c #EAD11E",
", c #147ABF",
"< c #40AFDD",
"1 c #EC9EA4",
"2 c gray99",
/* pixels */
".o+#OO+ooOO+.O#-@+OOOOoOOOO#..OOOO.+.#O+@O=@=Oo.O+-##o=O#+o-#OOO",
"OO..@OO++@.O.@++o-o+O@##oOO..O@O@O#+...+-O@==#@@ oo++@-oo#o+O.+O",
"#@@+OOOO=o@@#O..++O-ooo-+O.@@#oo+OO.oOO+#O+@oooo-=OOo++++#+o@.o.",
".o=+@OOO@++O..+OO+O=@+=ooOO.-o=-oOO.OO@o@O-OO@+#-oo=++oo-+++OOo.",
"#O+oOO...Oo+O..OO@o=+=O-@O..+=@=oO#.O@o+@=o.OO+oo@-o+o#++o#o@OO.",
"Oo@OO@O#+.@-#@OOOOo===@ooO.#o+-o+O#.O@+-===O.@O.#=#o@+-oO@++OOO@",
"O@@OO@oO...#@o@.OOO+=++O@#O.++..@@.OO@o##oo+@@O.+=oOOo+@.Oo@OOO@",
"o@OOOO@#.+OO##O.OO@o+OOOOO.@O#.+OOO@+OoOOO@o+o@@+@-O.@o@.O@OO@+O",
"+oo+@O.@ @OOo+@.O@O+oO..OO#OOO.+..O+o@@#.@@OO@+oo###oO@OOOOOO+o+",
"++++@.O++++++o@@@OO@@@..OO.OO+..#@@O+OOO.OOOOOO@Ooo+=+oo+@OOOO##",
"++++@ =++o+#oo@O.@OOoo@O.O.+.+.O@oo@O#.O@O.O@@OOOo-+Oo+-oO@OO++o",
"##oOO+#-+@O+++OOOO@O#@+@O.#.ooO@+O@@.OOO@O.OOO@@o--+.o==oo+@O++o",
"-+oOOo#oo.Oo=oOOoO.O..+=..O#oo.++OOO@O.OO#.#O.O@+o#o+=o--+o+OO+o",
"o#+=oo+#-oo++o+-+= OXXXXXXXXXXXXXXXXXXXXXXXXXX.O@.O+#+oo++++oO=+",
"#oo##o+@@==oo++O@=+@XXXXXXXXXXXXXXXXXXXXXXXXXX@+o+o##oo++o+-++o#",
"++o++#o+@#=@o+++=XXX,,<<<<<<<<,,,<<<<<<<<<<,,,XX+##oo#++o+#+@++o",
"++o+##o+@=@=+++++XXX,,<<<<<<<<,,,<<<<<<<<<<,,,XX#+ooo-#+O@o-O+oO",
"O++oo#@==O=@=o+++XXX,,<<<<<<<<,,,<<<<<<<<<<,,,XX#++-#o#ooOo+###O",
"oo@O++@=Oo+===oXX,,,<<<<<<<<,,<<<<<<<<<<<<<<<<,,XXX-+o@o##o+o+++",
"+@OO##++++o@==@XX,,,<<<<<<<<,,<<<<<<<<<<<<<<<<,,XXXo+oO+##o@O+++",
"OO@Oo#oo+-+OXXX,,<<<<<XXXXXX,,<<<<<<<<<<<<<<<<,,XXXO@@Ooo+=.@o++",
"Oo+O@O@Ooo@=XXX,,<<<<<XXXXXX,,<<<<<<<<<<<<<<<<,,XXX.OO@@+-ooO+oo",
"++=OOOO@o-=@XXX,,<<<<<XXXXXX,,<<<<<<<<<<<<<<<<,,XXX@OOO..##++++=",
"@#o+O@O@+@@=XXX,,<<<XX111111,,<<<<<<<<<<<<<<<<,,XXX+=O#.Oo##++o+",
"O@O=.OOOo@O#XXX,,<<<XX111111,,<<<<<<<<<<<<<<<<,,XXX#o+OO@@+o++++",
"O==++.O@+-==XXX,,<<<XX111&&&$$<<<<<<<<<<<<<<<<$$XXX#+++OOO #=Oo=",
"==o++@OOo+@oXXX,,<<<XX111&&&$$<<<<<<<<<<<<<<<<$$XXX@@+o@@.@#+==O",
"#@+oo+o@OOo#XXX,,<<<XX111&&&$$<<<<<<<<<<<<<<<<$$XXX--+ooOO+oo#=#",
"=@=++o=+O@O+XXX,,<<<<<<<<<<<<<,,,,,XXXXXX,,,,,XX###oo#+@@O@@.oO#",
"=@O=+o++OOOOXXX,,<<<<<<<<<<<<<,,,,,XXXXXX,,,,,XXo++O+ooO.@@..O-O",
"@=@=@-+o@.OOXXX,,<<<<<<<<<<<<<,,,11XXX222XX111XXooOO@++OOOO#.+#O",
"+o@OO@@+OOO.XXX,,<<<<<<<<<<<<<,,,11XXX222XX111XX#+@Oo+++OO@.OO++",
"O++#+O=#O.@@XXX,,<<<<<<<<<<<,,&&&11111222;;111XX+#oo-o++=+o@.+.O",
".@++#@O+o@O@XXX,,<<<<<<<<<<<,,&&&11111222;;111XX+++=@-o+o++@.o.#",
"OOOo+@++=OOOXXX,,<<<<<<<<<<<,,&&&11111222;;111XXO+@=O@o+OOO@OOO#",
"O.O@o+-O+o+OOOOXX,,,<<<<<<<<,,&&&11111222**111XX.#OO@##+@.O@oOOO",
"@O@o+oO=O+o-oOOXX,,,<<<<<<<<,,&&&11111222**111XX+++-O@O+.OO@@@#O",
"O=+o@@+-#-@@+OOO.XXX,,,,,,,,&&&&&1111111111XXX@o++o+=@@+o@OOOO..",
"O++oOO..o+-@#+.OOXXX,,,,,,,,&&&&&1111111111XXXoo+++o==@+++o+OO#.",
"@++@O.o.OOo+O+OOOXXX,,,,,,,,&&&&&1111111111XXX++o+++o+++@==+o+@O",
"Ooo+O.OOOOo+=#OO.XXXXXXXXXXXXXXXXXXXXXXXXXXO@++o+o+++Oo+O@=@++oO",
"@@O@++@O@O+=@+O.@XXXXXXXXXXXXXXXXXXXXXXXXXXO.@+++#+o+@.@@==Oo+@O",
"OOOO@++oOO=+++OXX***;;;;;;;;;;;;;%%;;;111XXOOOOO+o+O@OOoo=@@++oO",
"+OO..O@@OOOoo++XX***;;;;;;;;;;;;;%%;;;111XX+OO.OO@OOOOO+-+@@O+o@",
"+@OOOOOo@.@@Oo+XX***;;;;;;;;;;;;;%%;;;111XX@OO.OOOO@OO@o+o+==+o+",
"O@O@O.O@@OOO@O+XX***;;;;;XXX;;;;;XX;;;;;;;;XXXOO.O@O@o++o++@o#++",
"O.@OOO#O.O.O@O.XX***;;;;;XXX;;;;;XX;;;;;;;;XXX@OO.OO+++o++o+#o#o",
"o@OO@OO.+oOO+@.XXXXX**;;;XXX11111XX;;;;;;;;XXX.#..O@O@OO@O@o+#+-",
"+.O@O@.+oo.@@O@XXXXX**;;;XXX11111XX;;;;;;;;XXX#O.OOOOO.O@O.@+o-=",
"++.OO@OO.+o.@ooXX,,,XXXXXXXX11111XXXXXXXX>>XXX.#.@@O.+.OO@@OOOo@",
"#+@OOOOOO+o.O+-XX,,,XXXXXXXX11111XXXXXXXX>>XXX..O+OOo.#OO++OOO+#",
"o#O..#O+ooo+OooXX,,,XXXXXXXX11111XXXXXXXX>>XXXOO=+@.O.O#O@O@OOOO",
"O@@.o..ooooOOo@XX,,,<<<<<<<<XXXXX<<<<<<<<::XXX+-#o++OO.O.O@.O..O",
".O#O+o+o+oOOo-OXX,,,<<<<<<<<XXXXX<<<<<<<<::XXX++++o+-@.+OO.Oo++o",
"+.O.#.oooOOO#==XXXXX,,<<<<<<<<<<<<<<<<,,,XXXXX-o+oo#+=..O@O+oooo",
"o..@#OoooOOO+==XXXXX,,<<<<<<<<<<<<<<<<,,,XXXXXo#+++@O@@OOOOO.ooo",
"o+#OO.+.+OO.o#oXXXXX,,<<<<<<<<<<<<<<<<,,,XXXXX=+O#+...o-+OO@O#.o",
".oooooOOO..@XXXXXXXXXXXXXXXXXXXXXXXXXXXXXXXXXXXX#-o..Oo#-o@+=oOO",
"O+ oo.O@OOO@XXXXXXXXXXXXXXXXXXXXXXXXXXXXXXXXXXXXoo++@O@++ooo++#@",
".oo o#@@O@@OXXXXXXXXXX&&&XXX&&11111111XXXXXXXXXX++o-+O.O.=++#==o",
"..+o.OOOOO@OXXXXXXXXXX&&&XXX&&11111111XXXXXXXXXX++++@oO.@+=@o+-o",
"@#.O#O.+=oOOXXXXXXXXXX&&&XXX&&11111111XXXXXXXXXX-o+@=@#oO++-+oo+",
"OOO.OO++#+OOXXXXXXXXXXXXXXXXXXXXXXXXXXXXXXXXXXXX++++===#o+oo-o+@",
"..O..@=++O.OXXXXXXXXXXXXXXXXXXXXXXXXXXXXXXXXXXXXo-=ooO==o=+#o-+O"
};
