/* XPM */
static char *_50123244c244fc2d0984fb44a95c01d2wpRxazYYUEKkvNR[] = {
/* columns rows colors chars-per-pixel */
"64 64 70 1 ",
"  c #131A15",
". c #171D19",
"X c #1A1E1D",
"o c #1C221E",
"O c #1B1F20",
"+ c #1E2322",
"@ c #1F2922",
"# c #212525",
"$ c #232926",
"% c #242629",
"& c #262B2A",
"* c #292D2D",
"= c #2B322E",
"- c #2E382F",
"; c #2C2E31",
": c #2E3331",
"> c #2F3831",
", c #313535",
"< c #333A35",
"1 c #343639",
"2 c #363B39",
"3 c #393D3C",
"4 c #364137",
"5 c #374039",
"6 c #3B423D",
"7 c #3D433F",
"8 c #3C443E",
"9 c #3E473F",
"0 c #3E483F",
"q c #3C3F40",
"w c #3C3E41",
"e c #3F4041",
"r c #3E4142",
"t c #3F4243",
"y c #3F4541",
"u c #3F4841",
"i c #404642",
"p c #404344",
"a c #434447",
"s c #444745",
"d c #424943",
"f c #434A44",
"g c #434846",
"h c #444847",
"j c #454B46",
"k c #444648",
"l c #464A49",
"z c #474C48",
"x c #484B49",
"c c #494C48",
"v c #494C4A",
"b c #48494C",
"n c #494B4D",
"m c #4B4C4D",
"M c #4B4E4E",
"N c #4C4F4E",
"B c #4B504C",
"V c #4C514D",
"C c #4E534E",
"Z c #51554F",
"A c #4D4E50",
"S c #4F4F50",
"D c #4F5151",
"F c #525353",
"G c #545555",
"H c #555556",
"J c #565955",
"K c #575759",
"L c #585759",
"P c #5A5A59",
/* pixels */
"$%+*<<,<2226ihv*+*kkalh:+7xi2<&.o#-<2235=#1hwa::rMa76=o%=-=:==**",
"2*%+,969id9377*%%aSnMB:+2Vhy6<++=+$=->,=$,larv1;wpr3,*$2hdhlhhy6",
"i:%%%=,232*++++%2lvlv:+,Vhi7y=+*9,$$&*#$=::rlv*%:,,:,,%hlllgyyi6",
"i,%%$++%%++$$%+:rrsV<X*vBh7y7%+<7g9%o.$2ri3:a3&;**;3p2%rVliag76y",
"S;%+*,,,:,377:+:6rV7+%7dy67y<+%2d9--2=$<7yz3*$,;**%%%%%:vNMSnnGG",
"1%+*3raaaai995#:,,,%+:9532,2:+%65:9hhh-*7gyy,%,a7,;;:;*%:palSFMp",
"%#%,rDFMaaahh7o#&:#+%,iyid9:++%:7gd99d7*<hlr:$2zvv3wra:*#%%;,,:&",
"X%&3lMMarahvB=#+:9oo%,alhhh5+o&7y7yigi6::vMr*$5gdli37v3;%*;%+#%X",
"X+*3lxr3rahV2o=:$$+$o%2ahh5=o$297767yg3:=vx3&*hzvhg36yi:%:pw%++X",
"X+%1a<3r6yB6+&53$o,h:+***&$#&2y677yryh2==vk2%2BvBlh367i3$*kSl1&O",
"<:%:73a67z7%=765$$3Nr*+*,2:$=6i6797ihg<==va:%7zzzlhr6ri2#%lSFFx2",
"gi=$<hi7i3%=63y,%=ga3%%3lMM**,didydh6:%$$7v,%2gigll7ya3%%%pKFPPl",
"al2$:aigy$%36i,#%:iy<#*3rrN3%=,9i62=+o%%*%=&+=dyyhiry3%%,%,PPLlk",
"hz2%*2hi*o&3i<#&$-37:o&266il,%$$*%++#*2hx7:=$+=9dd77<%%3l:*GGDNl",
"hv2$$,:%oX+$*$-5#-99&.&<56i3*<a3*::$=6vhai995&o$:<2,$*raa2%FMlll",
"gV<&+$+%$*=%*#=-+=5<+o#>9di**vkx7*$&<ii7ii459<%#&=&#;slaa3$vzhga",
"iv,*o+*,37<6:+*:*%&$+-=$,y<+6ary9o+$<599i94555=$73$,lvkr7,$hzhd7",
"7i:&+:srr37a%%,3r2*o&292=&#=dagy,o+-555yd92<55:%<&=ghlaig2$rlhd9",
"96:%%iMpr3l3%:3r2wr:$<5rd,#5hgh9$o@->229y5,255-#o&99iaaah2$<hgg9",
"==%+*xlpral*$,3pr3wr%%<25=&7idg2oo=2259iy54555=$#=09ggall,$=35,=",
"#%*#*haarMr%*2wrw312:o$*$+*iy9i&.+<556ygg95592$==&99hvBVh,#++##+",
"<52*$6p3iv3%*2ww11rg6%:27,%<hhr%O&59yyhghd590=+>=$3ghvvZr*#$o$,,",
"6u7,$:palv,+*3p33axh2:lllv2%:r3++*3haghlvg52&o@&##:iMNVB:$,=+:y2",
"2yar%$rvvh*+,aMMDMla:,liyah*=*=++%:2ydhi52=$o&,,-$&,raa<%,6<+&92",
"26yd,#,gh<##*:<332<,%6zaaaa,l3#o$++%%**&&&$o*96663%*;;*=$%&&++>5",
"996h7$$,=+%673:%%**&*aMlsxv*,2&:<:*%%+&<2<+*hgyry6,:$*22%=3=+o$2",
"5d6d9=%%+%7gilr%:sa*2DMalFF:+*iyy9i76:$22#*hhaai7<r3*1k**rai%++&",
"=dydi*=%%<d37ak*%p,+2NllSNn:+3h66559y7$%+*haaary26i3*3:*wa3h,+oo",
"o-2d5&++<h679al;+*3,*:1pDDa*#rh55556yy:o$hgalay23hl1*%;wwpra,+o.",
"$$$$$++=hyyyahl*%3NMa,;*1k3%%3hd5566yi:o2zyasl3wlDk:&131wkah*%+#",
",2<,:#+5hiiggh3+,haalMM3%***;l6d6699ir%#3aggklrMNa;%,1;,lkxh&*#=",
"<337y$$dgiazhd%$vvgalpkk;%13%ay6969ig:o#%:3glpnFr;#%%%;alkN3:2#=",
"2637i#$d7rvBV,+9hyallall**ak%1gyyiiy,$323:$,vSSw*%$&2avlllV,62%*",
",hygy%$7ihhGl%=Byiiplll3%*hV3%3dd72&%hv3rr:#,p3*;,#2VVVvnDa,z2%*",
"=<<3,+%:yBvv,+%3dyyhlr,%o&vMw%$:2:$*lMsi37y2$;*;a2+7Vavlnx,av<#+",
"#%$%$o%$%==*%o+*<9ihr:$&=%yNr&#$$$%3xpa3riak1+X,h,+7VvMMD23vv,#X",
"=7hr:$3r,%+*,<:$&5g6=$6ii=:vr**2:$%,MM2wlaak2%:%=:+rhzMl,3lFi&+%",
"hlhl3*xna2$2iii6&-7:+2zrh3*2,$1na2%&rD1paakw*3a,$%%3Vha,3nJZ,+*r",
"7rvva:l7:=+,hr36,&,$%2hav2%*;*,MMl2%232aaMl;2Mir=o%:a3:aGPv,%%1x",
"waVFx*:%+%%%<ha7<+XO%;llr%<pks*3VDN*%*allM2*MMhh2=+%%*iha,**%%,s",
"pxFG3%*;3r3*+*37%X%*%%rl:%2lnN<%:,:%o%lllr%3DnMxa<%%=,<,,ihl2%:a",
"pSKn**1Nnlxa:%,:X*3ir%;a&%<aaV6*:22,+*lal;%9vzMxv2%ivBVBvziia*&,",
",ak:*1FFlsaMr%*%,vzahr%&%%:rvh,=27y,#;pnr+=9ghllv2:Byrgharyg3*%%",
"%*%%2NGSMhrxh*#:vlghhaw%++%2g2&:dgd:+*,3*+&9dalVl:<g6yhhvha<=2:X",
"%*:6hvvMharvi%$hvNMllas3%++%=&#&-,-$+**%%#&7gzvr:%&6995222:3ah<X",
"+;6i99airalv:%:llDMkala3<%++:3952<:&=7h6,#%:6r:%*2,:#o$%%#rMah*%",
"%%=,55ihlMi*$$2laxllar2,73%%rdy96gi==7gy6$,<:%#3Fll2%2a32%2lv:=7",
"y,#&-><21;%%$$<gilknp3rvMs*%,7669hr*=i676&6a2%,Bvar*7lll32%i<$iy",
"rh9=$$$%#%*,<*:ygllkrrkMMs*#,pllMa:+=7lar:ra%2Nlal:7i6yhw1;%$<i7",
"aMla7=%%;:*,h2*3lnSSkknSM3%+;pkp2*%*%*sMp,r,*xaavrri997ia;%#:gaa",
"lvhgl3*%2r2**,%,:,1wknsr,%+%*&#&1rMVi:&23*$$:26gzMhhd9yg,#**=aVx",
"***=22,%rVl32*##****%%%%%%2a3:#1NNVagv2%$&&$2<2yhalhyzl3%%a<$<3*",
"=,,*%*%%3xrllw*%2pnSk,%%;1kli=#3gzxaalh3$<-&5<>9yhgallh:#3la&#%%",
"7as,%**%3nMnlar*:lMSn*##,kaa7*+3yhhagayd,&#&5<,29u9hvV3%%3ra=#2y",
"rVp$;aw%3r31,,2:%kDS:3x&;lnn3%%25dihvvd99-oo442:99ygvr%%%%%*$$,3",
"<i*$3h2&:$%;::,*$3l2pNFp%pMx2+&250VVi3,,54#.=52:29dh7%%%<r223:$*",
"%=%:rg=++=yVVFM3%%;rMpkp%rxl2+=29d3%%::**:#oo-2,563:$+o=ghzDVy,#",
"%+&1g9#X:zhxlkla**aklaa,%2sp;+:62&+;svhi,#o:=o#&&$%$&&@-ygvMMa2:",
"%%*3h:X%y7riiraa$1Sn1&&*%$*%&%%*%%2MVz7yy=$<5+#+o&6694$&9hhvv362",
";%,a<++377i77al:X2N,%,3r,%23rr,#;lDMvhy92<$-5#-<=$2d95=+,ddha2s7",
"*%31++<5576rir,**,,%sara2*ialn3*kllvvlg662+=2#=99-+<95-+=yyhy,V3",
"%%*+%,62223<<,3a:%%wxpal3%3lMD2*aagaadiyy<+=6$*6di:#-5,o&6dd=rJ,",
"X+$%,<,:<2:<6aaa*+,nsaan3#%,32%$2y67yriig2+*<$*wVMv2$$&o$-:=:i3%",
"XX$:<::<<:<67alr#%wkrpkr*%33<,$X+,2<22363%%3r3*,hxay7$ oooo+#+#+"
};
