/* XPM */
static char *d99b7c5acd3841a089fc6c4ca3241a02NqMS1MtfIoC5jXU9[] = {
/* columns rows colors chars-per-pixel */
"64 64 18 1 ",
"  c #062600",
". c #0D3502",
"X c #26232F",
"o c #14430A",
"O c #1C5211",
"+ c #236014",
"@ c #266E1C",
"# c #2E7923",
"$ c #1B377F",
"% c #A66E46",
"& c #A75D69",
"* c #008B12",
"= c #35872A",
"- c #3C9631",
"; c #3EF33F",
": c #147ABF",
"> c #40AFDD",
", c #EC9EA4",
/* pixels */
".o+#OO+ooOO+.O#-@+OOOOoOOOO#..OOOO.+.#O+@O=@=Oo.O+-##o=O#+o-#OOO",
"OO..@OO++@.O.@++o-o+O@##oOO..O@O@O#+...+-O@==#@@ oo++@-oo#o+O.+O",
"#@@+OOOO=o@@#O..++O-ooo-+O.@@#oo+OO.oOO+#O+@oooo-=OOo++++#+o@.o.",
".o=+@OOO@++O..+OO+O=@+=ooOO.-o=-oOO.OO@o@O-OO@+#-oo=++oo-+++OOo.",
"#O+oOO...Oo+O..OO@o=+=O-@O..+=@=oO#.O@o+@=o.OO+oo@-o+o#++o#o@OO.",
"Oo@OO@O#+.@-#@OOOOo===@ooO.#o+-o+O#.O@+-===O.@O.#=#o@+-oO@++OOO@",
"O@@OO@oO...#@o@.OOO+=++O@#O.++..@@.OO@o##oo+@@O.+=oOOo+@.Oo@OOO@",
"o@OOOO@#.+OO##O.OO@o+OOOOO.@O#.+OOO@+OoOOO@o+o@@+@-O.@o@.O@OO@+O",
"+oo+@O.@ @OOo+@.O@O+oO..OO#OOO.+..O+o@@#.@@OO@+oo###oO@OOOOOO+o+",
"++++@.O++++++o@@@OO@@@..OO.OO+..#@@O+OOO.OOOOOO@Ooo+=+oo+@OOOO##",
"++++@ =++o+#oo@O.@OOoo@O.O.+.+.O@oo@O#.O@O.O@@OOOo-+Oo+-oO@OO++o",
"##oOO+#-+@O+++OOOO@O#@+@O.#.ooO@+O@@.OOO@O.OOO@@o--+.o==oo+@O++o",
"-+oOOo#oo.Oo=oOOoO.O..+=..O#oo.++OOO@O.OO#.#O.O@+o#o+=o--+o+OO+o",
"o#+=oo+#-oo++o+-+= OOXXXXXXXXXXXXXXXXXXXXX@.OO.O@.O+#+oo++++oO=+",
"#oo##o+@@==oo++O@=+@OXXXXXXXXXXXXXXXXXXXXX@O#O@+o+o##oo++o+-++o#",
"++o++#o+@#=@o+++=@=XX>>>>::>>>>>>>>>::>>>>XXX@+++##oo#++o+#+@++o",
"++o+##o+@=@=+++++O-XX>>>>::>>>>>>>>>::>>>>XXXO++#+ooo-#+O@o-O+oO",
"O++oo#@==O=@=o++++oXX>>>>::>>>>>>>>>::>>>>XXX+o+#++-#o#ooOo+###O",
"oo@O++@=Oo+===o+XXX::>>::>>>>>>>>>>>>>::>>:::XX+o+o-+o@o##o+o+++",
"+@OO##++++o@==@oXXX::>>::>>>>>>>>>>>>>::>>:::XXoo+#o+oO+##o@O+++",
"OO@Oo#oo+-+OOO==XXXXX>>$$>>>>>>>>>>>>>$$>>XXXXX@o++O@@Ooo+=.@o++",
"Oo+O@O@Ooo@==.=OXXXXX>>$$>>>>>>>>>>>>>$$>>XXXXX==# .OO@@+-ooO+oo",
"++=OOOO@o-=@O@@=XXXXX>>$$>>>>>>>>>>>>>$$>>XXXXX@#@o@OOO..##++++=",
"@#o+O@O@+@@==-XX,,,,,$$>>>>>>>>>>>>>>>>>$$,,,,,XX=++=O#.Oo##++o+",
"O@O=.OOOo@O#@oXX,,,,,$$>>>>>>>>>>>>>>>>>$$,,,,,XX@O#o+OO@@+o++++",
"O==++.O@+-===OXX,,,&&$$>>>>>>>>>>>>>>>>>$$&&&,,XX+O#+++OOO #=Oo=",
"==o++@OOo+@oo=XX,,,&&$$>>>>>>>>>>>>>>>>>$$&&&,,XX=#@@+o@@.@#+==O",
"#@+oo+o@OOo##oXX,,,&&$$>>>>>>>>>>>>>>>>>$$&&&,,XXoo--+ooOO+oo#=#",
"=@=++o=+O@O++-o=XXX>>::>>>>>>>>>>>>>>>>>::>>>XX+###oo#+@@O@@.oO#",
"=@O=+o++OOOOo+o+XXX>>::>>>>>>>>>>>>>>>>>::>>>XX+o++O+ooO.@@..O-O",
"@=@=@-+o@.OOOOO+XXX>>::>>>>>>>>>>>>>>>>>::>>>XXoooOO@++OOOO#.+#O",
"+o@OO@@+OOO.OO.@XXX>>::>>>>>>>>>>>>>>>>>::>>>XX+#+@Oo+++OO@.OO++",
"O++#+O=#O.@@OO.OXXX::::>>>>>>>>>>>>>>>>>:::::XX#+#oo-o++=+o@.+.O",
".@++#@O+o@O@@.OOXXX::::>>>>>>>>>>>>>>>>>:::::XXo+++=@-o+o++@.o.#",
"OOOo+@++=OOOO@OOXXX::::>>>>>>>>>>>>>>>>>:::::XX.O+@=O@o+OOO@OOO#",
"O.O@o+-O+o+OOOOOOOOXX::::>>>>>>>>>>>>>::::XXX+@O.#OO@##+@.O@oOOO",
"@O@o+oO=O+o-oOOOO@OXX::::>>>>>>>>>>>>>::::XXXo+O+++-O@O+.OO@@@#O",
"O=+o@@+-#-@@+OOO.OOXXXX:::::::::::::::::XXXXX+@o++o+=@@+o@OOOO..",
"O++oOO..o+-@#+.OO..XXXX:::::::::::::::::XXXXX+oo+++o==@+++o+OO#.",
"@++@O.o.OOo+O+OOO+.XXXX:::::::::::::::::XXXXXo++o+++o+++@==+o+@O",
"Ooo+O.OOOOo+=#OOXXX****XXXXXXXXXXXXXXXXX*****XXo+o+++Oo+O@=@++oO",
"@@O@++@O@O+=@+O.XXX****XXXXXXXXXXXXXXXXX*****XX++#+o+@.@@==Oo+@O",
"OOOO@++oOO=+++XX,,,,,**;;%%;;;;;;;;;%%;;**,,,,,XXo+O@OOoo=@@++oO",
"+OO..O@@OOOoo+XX,,,,,**;;%%;;;;;;;;;%%;;**,,,,,XX@OOOOO+-+@@O+o@",
"+@OOOOOo@.@@OoXX,,,,,**;;%%;;;;;;;;;%%;;**,,,,,XXOO@OO@o+o+==+o+",
"O@O@O.O@@OOOXX,,,,,XX**;;%%;;;;;;;;;%%;;**XXX,,,,XXO@o++o++@o#++",
"O.@OOO#O.O.OXX,,,,,XX**;;%%;;;;;;;;;%%;;**XXX,,,,XXO+++o++o+#o#o",
"o@OO@OO.+oOOXX,,,,,XXXX;;%%;;;;;;;;;%%;;XXXXX,,,,XX@O@OO@O@o+#+-",
"+.O@O@.+oo.@XX,,,,,XXXX;;%%;;;;;;;;;%%;;XXXXX,,,,XXOOO.O@O.@+o-=",
"++.OO@OO.+o.@oXXXXXXX::XXXXXXXXXXXXXXXXX::XXXXXXX@@O.+.OO@@OOOo@",
"#+@OOOOOO+o.O+XXXXXXX::XXXXXXXXXXXXXXXXX::XXXXXXX+OOo.#OO++OOO+#",
"o#O..#O+ooo+OoXXXXXXX::XXXXXXXXXXXXXXXXX::XXXXXXX+@.O.O#O@O@OOOO",
"O@@.o..ooooOOo@==oOXX::>>>>>>>>>>>>>>>>>::XXX.+-#o++OO.O.O@.O..O",
".O#O+o+o+oOOo-O@oO@XX::>>>>>>>>>>>>>>>>>::XXXo++++o+-@.+OO.Oo++o",
"+.O.#.oooOOO#==-OO@XXXX::>>>>>>>>>>>>>::XXXXX#-o+oo#+=..O@O+oooo",
"o..@#OoooOOO+==o.O@XXXX::>>>>>>>>>>>>>::XXXXX=o#+++@O@@OOOOO.ooo",
"o+#OO.+.+OO.o#o@OOoXXXX::>>>>>>>>>>>>>::XXXXXO=+O#+...o-+OO@O#.o",
".oooooOOO..@+@.OXXX,,,,XXXXXXXXXXXXXXXXX,,,,,XX##-o..Oo#-o@+=oOO",
"O+ oo.O@OOO@@..@XXX,,,,XXXXXXXXXXXXXXXXX,,,,,XXooo++@O@++ooo++#@",
".oo o#@@O@@O.OO+XXX,,,,,,&&XXXXXXXXX&&,,,,,,,XX+++o-+O.O.=++#==o",
"..+o.OOOOO@OOO+oXXX,,,,,,&&XXXXXXXXX&&,,,,,,,XX+++++@oO.@+=@o+-o",
"@#.O#O.+=oOO+#o+XXX,,,,,,&&XXXXXXXXX&&,,,,,,,XX@-o+@=@#oO++-+oo+",
"OOO.OO++#+OO++-oXXXXXXXXXXXXXXXXXXXXXXXXXXXXXXX=++++===#o+oo-o+@",
"..O..@=++O.OO+o=XXXXXXXXXXXXXXXXXXXXXXXXXXXXXXX+o-=ooO==o=+#o-+O"
};
