/* XPM */
static char *result[] = {
/* columns rows colors chars-per-pixel */
"64 64 17 1 ",
"  c #062600",
". c #0D3502",
"X c #14430A",
"o c #1C5211",
"O c #236014",
"+ c #266E1C",
"@ c #2E7923",
"# c #584B44",
"$ c #6D6666",
"% c #35872A",
"& c #3C9631",
"* c #1B945F",
"= c #35A948",
"- c #0C896D",
"; c #8B8484",
": c #BAB0B0",
"> c #9EDF8A",
/* pixels */
".XO@ooOXXooO.o@&+OooooXoooo@..::::::.@oO+o%+%oX.oO&@@X%o@OX&@ooo",
"oo..+ooOO+.o.+OOX&XOo+@@Xoo..o::::::...O&o+%%@++ XXOO+&XX@XOo.Oo",
"@++Ooooo%X++@o..OOo&;;;;::####;;;;;;::####O+XXXX&%ooXOOOO@OX+.X.",
".X%O+ooo+OOo..OooOo%;;;;::####;;;;;;::####&oo+O@&XX%OOXX&OOOooX.",
"@oOXoo...oXOo.::##;;;;;;::####;;;;;;::##;;;;::##X+&XOX@OOX@X+oo.",
"oX+oo+o@O.+&@+::##;;;;;;::####;;;;;;::##;;;;::##@%@X+O&Xo+OOooo+",
"o++oo+Xo..##;;;;::##$$;;;;::##;;;;;;####;;;;::####;;oXO+.oX+ooo+",
"X+oooo+@.O##;;;;::##$$;;;;::##;;;;;;####;;;;::####;;.+X+.o+oo+Oo",
"OXXO+o.+####$$;;;;####$$;;::##$$$$$$##;;;;::####;;;;::+ooooooOXO",
"OOOO+.oO####$$;;;;####$$;;::##$$$$$$##;;;;::####;;;;::XXO+oooo@@",
"OOOO+ ;;::####$$;;::####$$==========$$;;::##;;;;;;;;::##Xo+ooOOX",
"@@XooO;;::####$$;;::####$$==========$$;;::##;;;;;;;;::##XXO+oOOX",
"&OXo##;;;;;;::##;;;;====>>>>>>>>>>>>>>====##$$;;::::##;;::XOooOX",
"X@O%##;;;;;;::##;;;;====>>>>>>>>>>>>>>====##$$;;::::##;;::OOXo%O",
"@XX@##$$$$;;::====>>>>>>==============>>>>>>==::####;;;;;;::OOX@",
"OOXO##$$$$;;::====>>>>>>==============>>>>>>==::####;;;;;;::+OOX",
"OO########$$##==>>======**************======>>====$$;;;;;;##oOXo",
"oO########$$##==>>======**************======>>====$$;;;;;;##@@@o",
"XX####;;::##>>>>==**************************==>>>>$$;;;;####XOOO",
"O+####;;::##>>>>==**************************==>>>>$$;;;;####oOOO",
"oo##$$;;;;::====********==============********====>>$$####;;::OO",
"oX##$$;;;;::====********==============********====>>$$####;;::XX",
"OO##$$$$;;;;==**--**======>>>>>>>>>>======**--**====##;;;;;;::O%",
"+@##$$$$;;;;==**--**======>>>>>>>>>>======**--**====##;;;;;;::XO",
";;;;########******====>>>>==========>>>>====******==$$;;;;;;##OO",
";;;;########******====>>>>==========>>>>====******==$$;;;;;;##X%",
"$$;;;;####**--**==>>>>====**********====>>>>==**--**==$$####::::",
"$$;;;;####**--**==>>>>====**********====>>>>==**--**==$$####::::",
"##$$;;::::****==>>====******************====>>==******##;;;;;;::",
"##$$;;::::****==>>====******************====>>==******##;;;;;;::",
"####$$;;::**====>>==******==========******==>>====****$$;;;;;;##",
"####$$;;::**====>>==******==========******==>>====****$$;;;;;;##",
"##########**==>>==****====>>>>>>>>>>==******==>>==****$$;;;;####",
"##########**==>>==****====>>>>>>>>>>==******==>>==****$$;;;;####",
"$$;;;;::##====>>==**====>>==========>>==****==>>====**######::::",
"$$;;;;::##====>>==**====>>==========>>==****==>>====**######::::",
"##;;;;;;::==>>==****==>>====******====>>==****==>>==**$$;;;;;;::",
"##;;;;;;::==>>==****==>>====******====>>==****==>>==**$$;;;;;;::",
"##$$;;;;::==>>==****==>>==**------**==>>==****==>>==**$$;;;;;;::",
"##$$;;;;::==>>==****==>>==**------**==>>==****==>>==**$$;;;;;;::",
"##$$##$$##==>>==****==>>==**------**==>>==****==>>==**##$$$$####",
"##$$##$$##==>>==****==>>==**------**==>>==****==>>==**##$$$$####",
"##########==>>==****==>>==**------**==>>==****==>>==**;;####::::",
"##########==>>==****==>>==**------**==>>==****==>>==**;;####::::",
";;;;::::##==>>==****==>>====********==>>==****==>>==**;;;;;;;;::",
";;;;::::##==>>==****==>>====********==>>==****==>>==**;;;;;;;;::",
"$$;;;;;;::====>>==****==>>==========>>==****==>>====**$$$$;;####",
"$$;;;;;;::====>>==****==>>==========>>==****==>>====**$$$$;;####",
"$$$$;;####**==>>==******==>>>>>>>>>>====****==>>==****########::",
"$$$$;;####**==>>==******==>>>>>>>>>>====****==>>==****########::",
"##$$######**====>>==****==============****==>>====****;;;;::####",
"##$$######**====>>==****==============****==>>====****;;;;::####",
"######::::****==>>====******************====>>==******;;;;;;::##",
"######::::****==>>====******************====>>==******;;;;;;::##",
"##;;;;;;::**--**==>>>>====**********====>>>>==**--**==$$;;;;;;::",
"##;;;;;;::**--**==>>>>====**********====>>>>==**--**==$$;;;;;;::",
"##;;;;;;;;==******====>>>>==========>>>>====******==>>##$$;;####",
"##;;;;;;;;==******====>>>>==========>>>>====******==>>##$$;;####",
"##########====**--**======>>>>>>>>>>======**--**====>>######::::",
"##########====**--**======>>>>>>>>>>======**--**====>>######::::",
";;;;;;::##>>====********==============********====>>==$$;;;;;;::",
";;;;;;::##>>====********==============********====>>==$$;;;;;;::",
"$$$$;;;;##==>>>>==**************************==>>>>==**##$$;;;;##",
"$$$$;;;;##==>>>>==**************************==>>>>==**##$$;;;;##"
};
